<svg xmlns="http://www.w3.org/2000/svg" width="21" height="21" viewBox="0 0 21 21"><path fill="#272727" d="M21 11.813V10.5h-3.964a7.585 7.585 0 0 0-1.47-3.943h3.321L20.324.81 19.051.492l-1.188 4.753h-3.582l-.055-.042A3.932 3.932 0 0 0 10.502.001a3.933 3.933 0 0 0-3.938 3.927c0 .446.075.876.213 1.275l-.055.042H3.14L1.952.492.679.81l1.437 5.747h3.321a7.581 7.581 0 0 0-1.47 3.943H.003v1.313h3.966c.078.936.318 1.821.69 2.62H2.116L.679 20.18l1.273.318 1.188-4.753h2.304c1.204 1.6 3.023 2.62 5.058 2.62s3.855-1.02 5.058-2.62h2.304l1.188 4.753 1.273-.318-1.437-5.747h-2.543a7.717 7.717 0 0 0 .69-2.62h3.966z"/></svg>