<svg xmlns="http://www.w3.org/2000/svg" width="27" height="17" viewBox="0 0 27 17"><path fill="#272727" d="M0 1.444C0 .647.647 0 1.443 0h24.183c.797 0 1.443.646 1.443 1.444v14.112c0 .797-.647 1.444-1.443 1.444H1.443A1.443 1.443 0 0 1 0 15.556V1.444zm10.021 10.598h1.925l1.205-7.066h-1.926l-1.204 7.066zm8.91-6.892a4.976 4.976 0 0 0-1.726-.297c-1.903 0-3.243.958-3.255 2.332-.011 1.015.957 1.582 1.688 1.92.75.346 1.002.567.998.876-.005.474-.599.69-1.152.69-.771 0-1.18-.107-1.813-.371l-.248-.112-.27 1.582c.45.197 1.282.368 2.145.377 2.024 0 3.339-.947 3.354-2.414.007-.804-.506-1.415-1.617-1.92-.673-.327-1.085-.545-1.081-.876 0-.294.349-.608 1.103-.608.63-.01 1.086.128 1.441.271l.173.082.261-1.531zm4.939-.167h-1.488c-.461 0-.806.126-1.008.586l-2.86 6.475h2.022s.331-.871.405-1.062l2.466.003c.058.247.234 1.059.234 1.059h1.787l-1.559-7.061zM6.32 8.82l-.675-3.247c-.117-.447-.455-.581-.873-.597H1.666l-.025.147a8.102 8.102 0 0 1 2.023.775l1.712 6.137 2.038-.002 3.032-7.052h-2.04L6.52 9.799l-.201-.979zm15.175.717l.767-1.975c-.011.019.158-.409.255-.674l.13.609.446 2.04h-1.599z"/></svg>