<svg width="61" height="40" viewBox="0 0 61 40" xmlns="http://www.w3.org/2000/svg"><title>discover</title><g fill-rule="nonzero" fill="none"><path d="M60.75 35c0 2.75-2.25 5-5 5h-50c-2.75 0-5-2.25-5-5V5c0-2.75 2.25-5 5-5h50c2.75 0 5 2.25 5 5v30z" fill="#FFF9F0"/><g transform="translate(10 16)"><path d="M5.885 3.943c0 1.002-.285 1.769-.854 2.302-.571.532-1.395.799-2.472.799H.835V.959h1.91c.994 0 1.765.263 2.313.787.552.524.827 1.257.827 2.197zm-1.34.034c0-1.307-.578-1.96-1.73-1.96h-.688v3.961h.554c1.243.001 1.864-.667 1.864-2.001zM6.976 7.044V.959h1.29v6.085zM13.391 5.354c0 .551-.197.982-.594 1.299-.396.316-.945.476-1.65.476-.648 0-1.224-.123-1.724-.366V5.564a7.2 7.2 0 0 0 1.043.389c.284.074.545.111.781.111.282 0 .5-.055.651-.162.148-.107.227-.27.227-.482a.524.524 0 0 0-.101-.318 1.05 1.05 0 0 0-.294-.269 7.666 7.666 0 0 0-.788-.412c-.371-.175-.649-.344-.837-.504a1.845 1.845 0 0 1-.445-.562 1.613 1.613 0 0 1-.166-.75c0-.538.182-.961.547-1.269.366-.309.869-.462 1.514-.462.316 0 .618.037.905.112.287.074.588.181.901.316l-.416 1.003a5.915 5.915 0 0 0-.807-.279 2.638 2.638 0 0 0-.626-.079c-.245 0-.433.056-.562.171a.561.561 0 0 0-.196.445c0 .114.026.212.079.298a.87.87 0 0 0 .252.245c.115.079.389.221.818.427.568.272.958.545 1.17.818.212.271.318.606.318 1.003zM17.078 1.945c-.486 0-.861.184-1.128.547-.268.365-.399.875-.399 1.526 0 1.356.509 2.035 1.527 2.035.428 0 .943-.104 1.553-.32v1.082c-.5.209-1.058.312-1.674.312-.885 0-1.562-.27-2.031-.807-.469-.536-.703-1.307-.703-2.312 0-.633.116-1.187.347-1.662a2.48 2.48 0 0 1 .992-1.095C15.995.997 16.5.87 17.08.87c.591 0 1.186.143 1.781.429l-.416 1.049a7.07 7.07 0 0 0-.688-.283 2.04 2.04 0 0 0-.679-.12zM28.959.959h1.303l-2.067 6.085h-1.407L24.724.959h1.304l1.145 3.621a13.893 13.893 0 0 1 .325 1.34c.03-.255.134-.699.312-1.34L28.959.959zM34.532 7.044h-3.505V.959h3.505v1.058h-2.215v1.336h2.062V4.41h-2.062v1.568h2.215zM37.092 4.709v2.335h-1.29V.959h1.773c.827 0 1.438.15 1.836.452.396.301.595.757.595 1.371 0 .357-.099.677-.295.955a1.956 1.956 0 0 1-.836.656 240.782 240.782 0 0 0 1.789 2.65h-1.432l-1.453-2.335-.687.001zm0-1.049h.417c.407 0 .709-.068.903-.203.193-.137.291-.351.291-.642 0-.289-.1-.493-.298-.616-.198-.123-.505-.183-.921-.183h-.394l.002 1.644z" fill="#414042"/><circle fill="#E6A124" cx="21.816" cy="4.002" r="3.043"/></g><path d="M60.75 27.5V35c0 .688-.141 1.344-.395 1.941a5.061 5.061 0 0 1-2.664 2.664A4.958 4.958 0 0 1 55.75 40H10.836L60.75 27.5z" fill="#E6A124"/><path d="M59.281 1.469A4.985 4.985 0 0 1 60.75 5v30a4.98 4.98 0 0 1-1.469 3.531A4.987 4.987 0 0 1 55.75 40h-50a4.98 4.98 0 0 1-3.531-1.469L59.281 1.469z" fill="#FFF" opacity=".08"/><path d="M55.75 1c2.206 0 4 1.794 4 4v30c0 2.206-1.794 4-4 4h-50c-2.206 0-4-1.794-4-4V5c0-2.206 1.794-4 4-4h50zm0-1h-50C3 0 .75 2.25.75 5v30c0 2.75 2.25 5 5 5h50c2.75 0 5-2.25 5-5V5c0-2.75-2.25-5-5-5z" fill="#F7F5F2"/></g></svg>