<svg xmlns="http://www.w3.org/2000/svg" width="26" height="17" viewBox="0 0 26 17"><path fill="#272727" d="M21.122 8.106a.747.747 0 0 0-.516-.183c-.274 0-.503.094-.688.283s-.278.42-.278.694c0 .207.067.37.2.488s.307.178.522.178c.266 0 .494-.093.683-.278s.283-.411.283-.677c0-.215-.069-.383-.205-.505zM8.511 8.106a.747.747 0 0 0-.516-.183c-.274 0-.503.094-.688.283s-.278.42-.278.694c0 .207.065.37.194.488s.301.178.516.178c.274 0 .505-.09.694-.272s.283-.409.283-.683c0-.215-.069-.383-.205-.505z"/><path fill="#272727" d="M24.601 0H1.866A1.868 1.868 0 0 0 0 1.866v13.267c0 1.029.837 1.866 1.866 1.866h22.735a1.868 1.868 0 0 0 1.866-1.866V1.866A1.868 1.868 0 0 0 24.601 0zM4.098 8.744c-.022 0-.074-.004-.155-.011s-.152-.011-.211-.011-.122.006-.189.017-.122.035-.166.072a.22.22 0 0 0-.078.144l-.2 1.221c-.015.141-.096.211-.244.211h-.844c-.044 0-.081-.018-.111-.056s-.041-.078-.033-.122l.722-4.529c.015-.141.092-.211.233-.211h1.776c.459 0 .831.098 1.116.294s.427.513.427.949c0 .637-.181 1.134-.544 1.493s-.862.538-1.499.538zm5.928-1.465l-.455 2.897c-.022.141-.104.211-.244.211h-.766c-.096 0-.144-.059-.144-.178 0-.067.015-.144.044-.233-.133.148-.311.266-.533.355s-.437.133-.644.133c-.429 0-.772-.129-1.027-.389s-.383-.607-.383-1.043c0-.54.187-1.01.561-1.41s.827-.6 1.36-.6c.503 0 .855.148 1.055.444.022-.244.085-.366.189-.366h.844c.044 0 .081.019.111.056s.041.078.033.122zm1.455 4.252h-.855c-.096 0-.144-.048-.144-.144 0-.059.303-.503.91-1.332-.007-.029-.094-.289-.261-.777l-.466-1.366c-.144-.422-.216-.64-.216-.655 0-.037.015-.072.044-.105s.063-.05.1-.05h.833c.126 0 .207.059.244.178l.488 1.665 1.177-1.732a.235.235 0 0 1 .2-.111h.855c.037 0 .07.017.1.05s.044.068.044.105c0 .037-.007.063-.022.078l-2.831 4.085a.235.235 0 0 1-.2.111zm5.228-2.787c-.022 0-.074-.004-.155-.011s-.152-.011-.211-.011-.122.006-.189.017-.122.035-.166.072a.22.22 0 0 0-.078.144l-.2 1.288c-.03.096-.089.144-.178.144h-.91c-.044 0-.082-.018-.111-.056s-.041-.078-.033-.122L15.2 5.68c.015-.141.096-.211.244-.211h1.765c.459 0 .831.098 1.116.294s.427.513.427.949c0 .637-.181 1.134-.544 1.493s-.862.538-1.499.538zm5.929-1.465l-.455 2.897c-.022.141-.104.211-.244.211h-.766c-.096 0-.144-.059-.144-.178 0-.029.007-.074.022-.133s.022-.092.022-.1c-.126.148-.3.266-.522.355s-.44.133-.655.133c-.429 0-.772-.129-1.027-.389s-.383-.607-.383-1.043c0-.54.187-1.01.561-1.41s.827-.6 1.36-.6c.511 0 .862.148 1.055.444.022-.244.085-.366.189-.366h.844c.044 0 .081.019.111.056s.041.078.033.122zm1.965-1.643l-.722 4.541c-.015.141-.093.211-.233.211h-.733c-.044 0-.081-.017-.111-.05s-.045-.068-.045-.105l.011-.022.722-4.618c.015-.081.063-.122.144-.122h.821c.096 0 .144.052.144.155v.011z"/><path fill="#272727" d="M17.298 6.618c-.089-.078-.181-.124-.277-.139s-.226-.022-.389-.022h-.2c-.082 0-.13.041-.144.122l-.189 1.188.355-.011c.326 0 .57-.055.733-.166s.244-.322.244-.633c0-.148-.044-.261-.133-.339zM4.664 6.585c-.133-.085-.348-.128-.644-.128h-.211c-.081 0-.13.041-.144.122l-.189 1.188.366-.011c.289 0 .511-.041.666-.122s.251-.252.289-.511c.044-.274 0-.453-.133-.538z"/></svg>