<svg width="61" height="40" viewBox="0 0 61 40" xmlns="http://www.w3.org/2000/svg"><title>visa</title><g fill-rule="nonzero" fill="none"><path d="M60.75 35c0 2.75-2.25 5-5 5h-50c-2.75 0-5-2.25-5-5V5c0-2.75 2.25-5 5-5h50c2.75 0 5 2.25 5 5v30z" fill="#F3F4F4"/><path d="M1.75 10V5c0-2.75 2.25-5 5-5h48c2.75 0 5 2.25 5 5v5" fill="#5565AF"/><path d="M59.75 30v5c0 2.75-2.25 4-5 4h-48c-2.75 0-5-1.25-5-4v-5" fill="#E6A124"/><g fill="#5565AF"><path d="M18.137 23.379c.406-1.15.691-1.887.859-2.211l3.375-6.875h2.469l-5.844 11.422h-2.609l-.992-11.422H17.7l.398 6.875c.02.234.031.582.031 1.039a22.43 22.43 0 0 1-.047 1.172h.055zM23.809 25.715l2.438-11.422h2.383l-2.438 11.422zM35.934 22.34c0 1.09-.387 1.949-1.156 2.582-.771.633-1.816.949-3.133.949-1.152 0-2.078-.234-2.781-.703v-2.141c1.004.562 1.938.844 2.797.844.582 0 1.039-.109 1.367-.332.328-.221.492-.523.492-.91 0-.223-.035-.42-.105-.59a1.727 1.727 0 0 0-.301-.473c-.131-.146-.453-.41-.969-.797-.719-.517-1.225-1.025-1.516-1.532a3.197 3.197 0 0 1-.438-1.633c0-.672.16-1.271.484-1.801.322-.528.781-.939 1.379-1.234.596-.294 1.281-.441 2.059-.441 1.129 0 2.164.258 3.102.773l-.852 1.82c-.812-.385-1.562-.578-2.25-.578-.434 0-.787.117-1.062.352-.277.234-.414.545-.414.93 0 .318.086.596.258.832.172.237.557.551 1.156.941.629.417 1.102.877 1.414 1.379.312.505.469 1.091.469 1.763zM43.598 22.996h-3.695l-1.344 2.719h-2.5l5.984-11.469h2.914l1.148 11.469h-2.32l-.187-2.719zm-.118-2.031l-.203-2.734a25.514 25.514 0 0 1-.078-1.977v-.281c-.23.625-.514 1.287-.852 1.984l-1.469 3.008h2.602z"/></g><path d="M59.281 1.469A4.985 4.985 0 0 1 60.75 5v30a4.98 4.98 0 0 1-1.469 3.531A4.987 4.987 0 0 1 55.75 40h-50a4.98 4.98 0 0 1-3.531-1.469L59.281 1.469z" fill="#FFF" opacity=".04"/><path d="M55.75 1c2.206 0 4 1.794 4 4v30c0 2.206-1.794 4-4 4h-50c-2.206 0-4-1.794-4-4V5c0-2.206 1.794-4 4-4h50zm0-1h-50C3 0 .75 2.25.75 5v30c0 2.75 2.25 5 5 5h50c2.75 0 5-2.25 5-5V5c0-2.75-2.25-5-5-5z" fill="#F8F8F9"/></g></svg>