<svg width="61" height="40" viewBox="0 0 61 40" xmlns="http://www.w3.org/2000/svg"><title>diners</title><g fill-rule="nonzero" fill="none"><path d="M60.75 35c0 2.75-2.25 5-5 5h-50c-2.75 0-5-2.25-5-5V5c0-2.75 2.25-5 5-5h50c2.75 0 5 2.25 5 5v30z" fill="#F3F4F4"/><g transform="translate(17 10)"><circle fill="#009FDA" cx="10.584" cy="10" r="10"/><path d="M9.75 0c5 0 9.999 4.478 9.999 10 0 5.521-4.999 10-9.999 10V0z" fill="#009FDA"/><path d="M9.75 20V0h7.167c5 0 9.999 4.478 9.999 10 0 5.521-4.999 10-9.999 10H9.75z" fill="#009FDA"/><circle fill="#F3F4F4" cx="10.584" cy="10" r="9.438"/><path d="M15.188 10c0-2.727-2.438-5.008-4.438-5.609v11.218c2-.601 4.438-2.88 4.438-5.609zM3.312 10c0 2.727 2.438 5.008 4.438 5.609V4.39c-2 .602-4.438 2.882-4.438 5.61z" fill="#009FDA"/></g><path d="M59.281 1.469A4.985 4.985 0 0 1 60.75 5v30a4.98 4.98 0 0 1-1.469 3.531A4.987 4.987 0 0 1 55.75 40h-50a4.98 4.98 0 0 1-3.531-1.469L59.281 1.469z" fill="#FFF" opacity=".08"/><path d="M55.75 1c2.206 0 4 1.794 4 4v30c0 2.206-1.794 4-4 4h-50c-2.206 0-4-1.794-4-4V5c0-2.206 1.794-4 4-4h50zm0-1h-50C3 0 .75 2.25.75 5v30c0 2.75 2.25 5 5 5h50c2.75 0 5-2.25 5-5V5c0-2.75-2.25-5-5-5z" fill="#F8F8F9"/></g></svg>