<svg xmlns="http://www.w3.org/2000/svg" width="27" height="17" viewBox="0 0 27 17"><path fill="#272727" d="M0 1.477A1.44 1.44 0 0 1 1.44.036h24.132c.795 0 1.44.645 1.44 1.441v14.082A1.44 1.44 0 0 1 25.572 17H1.44A1.44 1.44 0 0 1 0 15.559V1.477zm0 6.515h1.298l.293-.703h.655l.292.703h2.553v-.537l.228.54h1.325l.228-.548v.545h6.345l-.003-1.154h.123c.086.003.111.011.111.152v1.001h3.282v-.269c.265.141.676.269 1.218.269h1.381l.295-.703h.655l.289.703h2.66v-.668l.403.668h2.132V3.578h-2.11v.521l-.295-.521h-2.165v.521l-.271-.521h-2.924c-.49 0-.92.068-1.267.258v-.258h-2.018v.258c-.221-.195-.523-.258-.858-.258H6.482l-.495 1.14-.508-1.14H3.157v.521l-.255-.521H.922l-.92 2.098v2.315zm8.2-.621h-.779l-.003-2.478-1.101 2.478H5.65l-1.104-2.48v2.48H3.001l-.292-.706H1.128l-.295.706H.008l1.36-3.164h1.128l1.292 2.995V4.207h1.239l.994 2.146.913-2.146h1.264v3.164zM2.436 6.006l-.52-1.261-.517 1.261h1.037zm8.867 1.365v-.654H9.526v-.632h1.735v-.649H9.526v-.57h1.777v-.659H8.766v3.164h2.537zm3.577-2.312c0-.353-.144-.559-.384-.701-.246-.141-.531-.152-.92-.152h-1.747V7.37h.759V6.219h.815c.273 0 .443.024.554.135.138.152.12.426.12.616l.003.399h.766v-.622c0-.283-.018-.423-.126-.58a.88.88 0 0 0-.376-.266.89.89 0 0 0 .535-.843zm-.994.445c-.104.063-.228.065-.376.065h-.923v-.703h.935c.132 0 .27.006.36.057.099.046.159.144.159.28 0 .138-.058.25-.156.301zm2.209 1.867V4.207h-.775v3.164h.775zm8.99 0h-1.076L22.57 4.996v2.375h-1.547l-.296-.706h-1.578l-.287.706h-.889c-.369 0-.837-.081-1.101-.35-.267-.269-.406-.633-.406-1.208 0-.469.083-.898.409-1.237.246-.253.63-.369 1.153-.369h.735v.678h-.72c-.277 0-.434.041-.584.187-.129.133-.218.385-.218.717 0 .339.068.583.209.743.117.125.329.163.529.163h.341l1.07-2.488h1.138L21.814 7.2V4.207h1.156l1.335 2.203V4.207h.778v3.164zm-4.617-1.365l-.526-1.261-.523 1.261h1.048zm6.545 6.403c-.184.269-.544.405-1.031.405h-1.467v-.679h1.461c.145 0 .246-.019.307-.078a.277.277 0 0 0 .09-.206.259.259 0 0 0-.093-.209c-.055-.048-.135-.07-.268-.07-.713-.024-1.603.022-1.603-.979 0-.459.293-.942 1.09-.942h1.513v-.63h-1.405c-.424 0-.732.101-.95.258v-.258h-2.079c-.332 0-.723.082-.907.258v-.258h-3.712v.258c-.295-.212-.794-.258-1.024-.258h-2.449v.258c-.234-.225-.754-.258-1.07-.258h-2.74l-.627.676-.587-.676H5.368v4.416h4.017l.646-.687.609.687 2.476.002V12.4h.243c.329.005.716-.008 1.058-.155v1.192h2.042v-1.151h.099c.126 0 .138.005.138.13v1.021H22.9c.394 0 .806-.1 1.034-.283v.283h1.968c.409 0 .809-.057 1.114-.204v-.823zm-12.299-1.718c0-.876-.677-1.043-1.28-1.043h-2.427l-.966 1.037-.934-1.037H6.053v3.165h3.008l.972-1.048.935 1.048h1.476v-1.061h.948c.664 0 1.322-.182 1.322-1.061zm-6.038 1.463H6.809v-.63h1.667v-.646H6.809v-.575h1.904l.831.922-.867.928zm3.011.371l-1.166-1.289 1.166-1.248v2.537zm1.738-1.416h-.981v-.806h.99c.274 0 .464.111.464.388 0 .274-.182.418-.473.418zm5.124-1.46v3.165h2.535v-.657l-1.778-.003v-.63h1.735v-.646h-1.735v-.575h1.778v-.654h-2.535zm-.96 1.694a.886.886 0 0 0 .538-.842c0-.361-.151-.559-.39-.703-.249-.132-.529-.149-.914-.149H15.07v3.165h.763v-1.156h.812c.277 0 .446.027.557.14.141.147.123.429.123.619v.396h.762v-.627c-.003-.279-.019-.423-.126-.578a.828.828 0 0 0-.372-.266zm-.458-.394c-.102.06-.227.065-.375.065h-.923v-.711h.935c.135 0 .271.003.362.057.098.051.157.149.157.285s-.059.244-.157.304zm6.852.195c.148.152.227.345.227.67 0 .681-.427.999-1.193.999h-1.479v-.679h1.473c.144 0 .246-.019.31-.078a.28.28 0 0 0-.003-.415c-.058-.048-.138-.07-.27-.07-.71-.024-1.6.022-1.6-.979 0-.459.29-.942 1.086-.942h1.522v.674h-1.393c-.138 0-.228.005-.304.057-.083.051-.114.127-.114.228 0 .119.071.201.166.236a.87.87 0 0 0 .296.036l.409.011c.412.01.695.081.867.255zm3.03-.822h-1.384c-.138 0-.23.005-.307.057-.08.051-.111.127-.111.228a.24.24 0 0 0 .166.236c.08.028.166.036.293.036l.412.011c.415.01.693.081.862.255.031.024.049.051.07.078v-.9z"/></svg>