<svg width="61" height="40" viewBox="0 0 61 40" xmlns="http://www.w3.org/2000/svg"><title>jcb</title><g fill-rule="nonzero" fill="none"><path d="M60.75 35c0 2.75-2.25 5-5 5h-50c-2.75 0-5-2.25-5-5V5c0-2.75 2.25-5 5-5h50c2.75 0 5 2.25 5 5v30z" fill="#F3F4F4"/><path d="M17.75 30h-8V15c0-2.762 3.238-5 6-5h6v15c0 2.762-1.238 5-4 5z" fill="#5565AF"/><path d="M31.75 30h-8V15c0-2.762 3.238-5 6-5h6v15c0 2.762-1.238 5-4 5z" fill="#EA564B"/><path d="M45.75 30h-8V15c0-2.762 3.238-5 6-5h6v15c0 2.762-1.238 5-4 5z" fill="#99CD76"/><path d="M59.281 1.469A4.985 4.985 0 0 1 60.75 5v30a4.98 4.98 0 0 1-1.469 3.531A4.987 4.987 0 0 1 55.75 40h-50a4.98 4.98 0 0 1-3.531-1.469L59.281 1.469z" fill="#FFF" opacity=".08"/><path d="M55.75 1c2.206 0 4 1.794 4 4v30c0 2.206-1.794 4-4 4h-50c-2.206 0-4-1.794-4-4V5c0-2.206 1.794-4 4-4h50zm0-1h-50C3 0 .75 2.25.75 5v30c0 2.75 2.25 5 5 5h50c2.75 0 5-2.25 5-5V5c0-2.75-2.25-5-5-5z" fill="#F8F8F9"/></g></svg>