<svg xmlns="http://www.w3.org/2000/svg" width="27" height="17" viewBox="0 0 27 17"><path fill="#272727" d="M0 15.556C0 16.354.646 17 1.443 17h24.183c.797 0 1.443-.646 1.443-1.444V1.444C27.069.646 26.423 0 25.626 0H1.443C.646 0 0 .646 0 1.444zm25.409-7.057c0 4.056-3.306 7.356-7.37 7.356a7.343 7.343 0 0 1-4.504-1.538 7.346 7.346 0 0 1-4.503 1.538c-4.064 0-7.37-3.301-7.37-7.356s3.306-7.355 7.37-7.355c1.695 0 3.258.573 4.503 1.537a7.338 7.338 0 0 1 4.504-1.537c4.064 0 7.37 3.299 7.37 7.355zm-7.37-6.697c3.706 0 6.71 2.998 6.71 6.697s-3.004 6.697-6.71 6.697a6.685 6.685 0 0 1-3.99-1.314 7.382 7.382 0 0 0 2.049-3.293h-.69a6.681 6.681 0 0 1-1.872 2.873 6.694 6.694 0 0 1-1.871-2.873h-.691a7.359 7.359 0 0 0 2.049 3.293 6.688 6.688 0 0 1-3.991 1.314c-3.706 0-6.71-2.999-6.71-6.697s3.004-6.697 6.71-6.697c1.496 0 2.875.489 3.991 1.314a7.36 7.36 0 0 0-2.117 3.534h.684a6.695 6.695 0 0 1 1.946-3.114 6.697 6.697 0 0 1 1.947 3.114h.683a7.35 7.35 0 0 0-2.117-3.534 6.685 6.685 0 0 1 3.99-1.314zM6.315 6.903H5.241L4.57 8.901l-.028-1.998h-.996l-.54 3.228h.648l.416-2.466.058 2.466H4.6l.885-2.481-.396 2.481h.692l.535-3.228zm1.287 2.058c-.013.388-.215.656-.498.656-.15 0-.247-.104-.247-.268 0-.264.198-.398.591-.398.05 0 .082.003.154.01zm.503 1.17c.018-.199.146-1.014.207-1.393.035-.22.057-.386.056-.521.001-.504-.314-.769-.908-.769-.256 0-.484.038-.828.139l-.096.59c.115-.038.394-.123.732-.118.324 0 .444.065.444.239a.626.626 0 0 1-.027.171 2.39 2.39 0 0 0-.282-.021c-.768 0-1.214.372-1.214 1.012 0 .424.256.716.632.716.317 0 .55-.103.725-.318l-.013.272h.574zm9.04-3.307c-.917 0-1.558.806-1.558 1.96 0 .857.464 1.393 1.209 1.393.191 0 .357-.025.611-.095l.121-.735c-.229.112-.417.166-.588.166-.402 0-.645-.297-.645-.786 0-.711.361-1.21.878-1.21.192 0 .371.05.618.175l.113-.7c-.101-.04-.458-.167-.76-.167zm1.994 2.137c-.012.388-.215.656-.497.656-.152 0-.249-.104-.249-.268 0-.264.199-.398.591-.398.051 0 .083.003.155.01zm.503 1.17c.018-.199.147-1.014.207-1.393.035-.22.057-.386.056-.521.001-.504-.314-.769-.909-.769-.254 0-.482.038-.827.139l-.096.59c.115-.038.393-.123.732-.118.323 0 .443.065.443.239a.656.656 0 0 1-.026.171 2.39 2.39 0 0 0-.282-.021c-.767 0-1.215.372-1.215 1.012 0 .424.257.716.632.716.316 0 .55-.103.726-.318l-.013.272h.573zm-8.136-.621a.575.575 0 0 1-.186.025c-.165 0-.237-.059-.237-.194.001-.084.115-.705.195-1.203h.355l.094-.631h-.354l.08-.396h-.688s-.26 1.545-.299 1.789c-.044.28-.1.584-.096.7 0 .374.193.577.546.577.16 0 .308-.027.498-.085l.091-.581zm2.117.561l.114-.653a1.637 1.637 0 0 1-.715.164c-.4 0-.644-.159-.598-.538h1.369c.06-.266.085-.454.085-.646 0-.581-.363-.95-.93-.95-.693 0-1.205.661-1.205 1.557 0 .768.401 1.17 1.172 1.171.241 0 .469-.034.706-.106zm-.387-1.557h-.76c.063-.302.22-.47.44-.47.393 0 .324.416.32.47zm-4.599-.178c0 .333.16.561.527.733.28.132.324.17.324.29 0 .163-.124.236-.398.236-.206 0-.399-.031-.62-.103l-.096.606c.158.034.298.066.721.078.73 0 1.067-.278 1.067-.877 0-.362-.14-.572-.488-.731-.29-.134-.323-.163-.323-.285 0-.142.115-.214.34-.214.135 0 .321.015.496.04l.099-.609a4.762 4.762 0 0 0-.609-.051c-.774 0-1.042.403-1.039.888zm14.902 1.795l.527-3.228h-.683l-.153.933c-.189-.249-.393-.357-.661-.357-.61 0-1.126.735-1.126 1.61 0 .656.332 1.088.835 1.088.253 0 .448-.088.638-.29l-.033.244h.655zm-1.021-.606c.322 0 .549-.365.549-.884 0-.334-.129-.515-.367-.515-.314 0-.537.365-.537.881 0 .344.119.518.355.518zm-2.135-2.019c-.087.812-.24 1.634-.36 2.448l-.032.177h.691c.248-1.605.308-1.918.696-1.879.062-.33.176-.616.263-.762-.29-.06-.452.104-.663.415.017-.135.047-.265.04-.399h-.635zm-6.048 0c-.087.812-.241 1.634-.361 2.448l-.032.177h.692c.248-1.605.307-1.918.695-1.879.063-.33.178-.616.263-.762-.289-.06-.452.104-.663.415.017-.135.047-.265.041-.399h-.635z"/></svg>