<svg width="61" height="40" viewBox="0 0 61 40" xmlns="http://www.w3.org/2000/svg"><title>amex</title><g fill-rule="nonzero" fill="none"><path d="M60.75 35c0 2.75-2.25 5-5 5h-50c-2.75 0-5-2.25-5-5V5c0-2.75 2.25-5 5-5h50c2.75 0 5 2.25 5 5v30z" fill="#5EC1EC"/><path d="M59.281 1.469A4.985 4.985 0 0 1 60.75 5v30a4.98 4.98 0 0 1-1.469 3.531A4.987 4.987 0 0 1 55.75 40h-50a4.98 4.98 0 0 1-3.531-1.469L59.281 1.469z" fill="#5BBBE6"/><g fill="#FFF"><path d="M18.305 24.922l-.457-1.74h-3.015l-.47 1.74h-2.755l3.028-9.318h3.345l3.065 9.318h-2.741zm-.977-3.797l-.4-1.523a53.047 53.047 0 0 1-.34-1.313 22.962 22.962 0 0 1-.264-1.155c-.037.216-.113.571-.225 1.066-.112.495-.361 1.471-.746 2.926l1.975-.001zM26.094 24.922l-1.898-6.685h-.057c.089 1.138.133 2.022.133 2.654v4.03h-2.221V15.64h3.338l1.937 6.59h.051l1.897-6.59h3.346v9.281h-2.305v-4.069c0-.211.004-.445.01-.704.006-.259.035-.891.086-1.898h-.057l-1.873 6.672h-2.387zM39.869 24.922h-5.51v-9.281h5.51v2.013h-3.004v1.46h2.781v2.012h-2.781v1.752h3.004zM49.854 24.922h-2.9l-1.811-2.9-1.789 2.9h-2.838l3.078-4.748-2.895-4.533h2.781l1.676 2.869 1.611-2.869h2.863l-2.939 4.729z"/></g><g fill="#FFF"><path d="M18.305 24.922l-.457-1.74h-3.015l-.47 1.74h-2.755l3.028-9.318h3.345l3.065 9.318h-2.741zm-.977-3.797l-.4-1.523a53.047 53.047 0 0 1-.34-1.313 22.962 22.962 0 0 1-.264-1.155c-.037.216-.113.571-.225 1.066-.112.495-.361 1.471-.746 2.926l1.975-.001zM26.094 24.922l-1.898-6.685h-.057c.089 1.138.133 2.022.133 2.654v4.03h-2.221V15.64h3.338l1.937 6.59h.051l1.897-6.59h3.346v9.281h-2.305v-4.069c0-.211.004-.445.01-.704.006-.259.035-.891.086-1.898h-.057l-1.873 6.672h-2.387zM39.869 24.922h-5.51v-9.281h5.51v2.013h-3.004v1.46h2.781v2.012h-2.781v1.752h3.004zM49.854 24.922h-2.9l-1.811-2.9-1.789 2.9h-2.838l3.078-4.748-2.895-4.533h2.781l1.676 2.869 1.611-2.869h2.863l-2.939 4.729z"/></g><path d="M55.75 1c2.206 0 4 1.794 4 4v30c0 2.206-1.794 4-4 4h-50c-2.206 0-4-1.794-4-4V5c0-2.206 1.794-4 4-4h50zm0-1h-50C3 0 .75 2.25.75 5v30c0 2.75 2.25 5 5 5h50c2.75 0 5-2.25 5-5V5c0-2.75-2.25-5-5-5z" fill="#9BCEE0"/></g></svg>