<svg xmlns="http://www.w3.org/2000/svg" width="27" height="17" viewBox="0 0 27 17"><path fill="#272727" d="M0 1.444C0 .646.646 0 1.443 0h24.183c.797 0 1.443.646 1.443 1.444v14.112c0 .798-.646 1.444-1.443 1.444H1.443A1.443 1.443 0 0 1 0 15.556zm5.393 15.249h20.12c.678 0 1.227-.549 1.227-1.227V8.99s-7.539 5.321-21.347 7.703zm-2.24-8.929c.265-.222.424-.576.424-.93s-.159-.697-.424-.919C2.9 5.7 2.6 5.616 2.104 5.616h-.206v2.442h.206c.495 0 .808-.089 1.049-.293zM2.258 4.99H1.133v3.693h1.119c.595 0 1.024-.132 1.402-.426.448-.349.713-.874.713-1.418 0-1.09-.866-1.849-2.109-1.849zm2.461 3.693h.766V4.99h-.766zm2.64-2.285c-.46-.16-.595-.265-.595-.465 0-.233.241-.409.571-.409.23 0 .418.089.618.299l.401-.493A1.782 1.782 0 0 0 7.2 4.921c-.695 0-1.225.454-1.225 1.058 0 .509.247.769.966 1.013.3.099.453.166.53.21.153.094.23.227.23.382 0 .299-.253.521-.595.521a.914.914 0 0 1-.836-.492l-.495.448c.353.487.777.703 1.36.703.796 0 1.355-.498 1.355-1.212 0-.587-.258-.852-1.13-1.152zm1.371.431c0 1.085.907 1.927 2.073 1.927.33 0 .612-.061.961-.215v-.848c-.306.288-.578.404-.925.404-.772 0-1.319-.526-1.319-1.274 0-.709.565-1.268 1.284-1.268.366 0 .642.123.961.415v-.847a2.061 2.061 0 0 0-.943-.227c-1.161 0-2.091.859-2.091 1.932zm9.109.636l-1.048-2.48h-.837l1.667 3.787h.412l1.697-3.787h-.831l-1.061 2.48zm2.238 1.218h2.173v-.625h-1.407v-.997h1.355v-.625h-1.355v-.82h1.407V4.99h-2.173zm3.669-1.993c.489 0 .749-.2.749-.571 0-.359-.259-.547-.736-.547h-.236V6.69h.224zm1.537-.61c0-.691-.506-1.09-1.39-1.09h-1.136v3.693h.765V7.2h.1l1.06 1.483h.942l-1.236-1.556c.577-.11.895-.481.895-1.047zm-13.269.756c0 1.085.936 1.964 2.09 1.964s2.09-.88 2.09-1.964v-.001c0-1.085-.936-1.963-2.09-1.963s-2.09.878-2.09 1.963v.001z"/></svg>