<svg width="61" height="40" viewBox="0 0 61 40" xmlns="http://www.w3.org/2000/svg"><title>mastercard</title><g fill-rule="nonzero" fill="none"><path d="M60.75 35c0 2.75-2.25 5-5 5h-50c-2.75 0-5-2.25-5-5V5c0-2.75 2.25-5 5-5h50c2.75 0 5 2.25 5 5v30z" fill="#5565AF"/><path d="M59.281 1.469A4.985 4.985 0 0 1 60.75 5v30a4.98 4.98 0 0 1-1.469 3.531A4.987 4.987 0 0 1 55.75 40h-50a4.98 4.98 0 0 1-3.531-1.469L59.281 1.469z" fill="#FFF" opacity=".04"/><g fill="#EA564B"><path d="M30.75 13.4a9.97 9.97 0 0 0-7.5-3.4c-5.522 0-10 4.477-10 10 0 5.521 4.478 10 10 10 2.99 0 5.667-1.32 7.5-3.401A9.944 9.944 0 0 1 28.25 20c0-2.534.948-4.838 2.5-6.6z"/><path d="M30.75 13.4a9.948 9.948 0 0 0-2.5 6.6c0 2.533.948 4.837 2.5 6.599A9.944 9.944 0 0 0 33.25 20a9.946 9.946 0 0 0-2.5-6.6z"/></g><path d="M38.25 10a9.97 9.97 0 0 0-8.644 5h2.288c.364.625.647 1.299.871 2h-4.044a9.898 9.898 0 0 0-.419 2h4.879c.034.33.068.66.068 1 0 .338-.02.671-.053 1h-4.895c.069.691.216 1.357.419 2h4.056a10.017 10.017 0 0 1-.886 2h-2.285a9.968 9.968 0 0 0 8.644 5c5.522 0 10-4.479 10-10 .001-5.523-4.477-10-9.999-10z" fill="#E9D419"/><path d="M55.75 1c2.206 0 4 1.794 4 4v30c0 2.206-1.794 4-4 4h-50c-2.206 0-4-1.794-4-4V5c0-2.206 1.794-4 4-4h50zm0-1h-50C3 0 .75 2.25.75 5v30c0 2.75 2.25 5 5 5h50c2.75 0 5-2.25 5-5V5c0-2.75-2.25-5-5-5z" fill="#7684B7"/></g></svg>