<svg xmlns="http://www.w3.org/2000/svg" width="27" height="17" viewBox="0 0 27 17"><path fill="#272727" d="M0 1.444v14.112C0 16.354.646 17 1.443 17h24.183c.797 0 1.443-.646 1.443-1.444V1.444C27.069.646 26.423 0 25.626 0H1.443C.646 0 0 .646 0 1.444zm6.467 7.902s-.01-3.23.001-4.718c.146-.869 1.036-1.52 1.908-1.441h2.429c-.003 2.958-.002 5.915-.007 8.873-.027.875-.79 1.641-1.667 1.663-.888.003-1.776 0-2.663.001v-3.695c.659.121 1.322.251 1.996.212.647-.034 1.427-.133 1.798-.738.274-.447.151-.98.174-1.475l-.008-1.264-1.5.008c-.007.736.015 1.473-.012 2.207-.058.488-.58.739-1.029.694-.519-.005-.981-.199-1.42-.328zm4.897-2.035c.006-.832-.011-1.664.009-2.495.061-.792.726-1.459 1.509-1.555.787-.026 1.576-.004 2.364-.011h.458c-.002 2.972.004 5.944-.003 8.915-.057.923-.947 1.698-1.87 1.611h-2.467V9.732c.643.508 1.512.584 2.305.574a6.473 6.473 0 0 0 1.541-.229l-.011-.733c-.709.341-1.587.582-2.327.194-.587-.336-.656-1.183-.342-1.728.388-.565 1.171-.582 1.781-.462.299.027.701.294.899.288v-.671c-1.023-.259-2.119-.342-3.144-.049-.255.087-.504.21-.702.396zm4.839 2.838h2.732c.508.019 1.127-.306 1.115-.879.009-.531-.538-.834-1.007-.872.375-.044.758-.307.794-.709.087-.525-.423-.9-.902-.911-.91-.015-1.821-.002-2.732-.006v-1.76c-.062-.915.712-1.764 1.621-1.819.904-.012 1.81-.002 2.714-.005v8.767c.045.888-.712 1.684-1.584 1.763-.917.008-1.834.001-2.751.003v-3.572zm.868-2.813h.937s.439 0 .439.429-.439.43-.439.43h-.937v-.859zm1.003 1.363s.494-.029.494.461-.491.461-.494.461h-1.003v-.922h1.003z"/></svg>