<svg xmlns="http://www.w3.org/2000/svg" width="27" height="17" viewBox="0 0 27 17"><path fill="#272727" d="M0 1.444C0 .647.647 0 1.443 0h24.183c.797 0 1.443.646 1.443 1.444v14.112c0 .797-.647 1.444-1.443 1.444H1.443A1.443 1.443 0 0 1 0 15.556V1.444zm21.112 7.108c0-3.588-2.995-6.069-6.276-6.067h-2.824c-3.321-.001-6.054 2.48-6.054 6.067 0 3.282 2.733 5.979 6.054 5.963h2.824c3.281.016 6.276-2.681 6.276-5.963zm-9.087-5.57a5.502 5.502 0 0 0-5.494 5.507 5.501 5.501 0 0 0 5.494 5.506c3.035-.001 5.494-2.465 5.495-5.506s-2.46-5.506-5.495-5.507zM8.543 8.489a3.494 3.494 0 0 1 2.236-3.257v6.514a3.495 3.495 0 0 1-2.236-3.257zm4.728 3.258V5.231a3.493 3.493 0 0 1 2.237 3.258 3.493 3.493 0 0 1-2.237 3.258z"/></svg>