<svg xmlns="http://www.w3.org/2000/svg" width="26" height="21" viewBox="0 0 26 21"><path fill="#272727" d="M5.25 7.219V4.594c0-1.087.881-1.969 1.969-1.969h.656V0h-.656a4.594 4.594 0 0 0-4.594 4.594v2.625A1.969 1.969 0 0 1 .656 9.188H0v2.625h.656c1.087 0 1.969.881 1.969 1.969v2.625a4.594 4.594 0 0 0 4.594 4.594h.656v-2.625h-.656a1.969 1.969 0 0 1-1.969-1.969v-2.625a4.578 4.578 0 0 0-1.379-3.281A4.58 4.58 0 0 0 5.25 7.22zM21 7.219V4.594a1.969 1.969 0 0 0-1.969-1.969h-.656V0h.656a4.594 4.594 0 0 1 4.594 4.594v2.625c0 1.087.881 1.969 1.969 1.969h.656v2.625h-.656a1.969 1.969 0 0 0-1.969 1.969v2.625a4.594 4.594 0 0 1-4.594 4.594h-.656v-2.625h.656A1.969 1.969 0 0 0 21 16.407v-2.625c0-1.286.528-2.447 1.379-3.281A4.58 4.58 0 0 1 21 7.22zM15.75 6.581a2.625 2.625 0 1 1-5.25 0 2.625 2.625 0 0 1 5.25 0zM13.125 10.482a2.625 2.625 0 0 0-2.625 2.625c0 1.41.656 2.527 2.669 2.622-.599.843-1.5 1.176-2.669 1.286v1.559s5.25.458 5.25-5.466a2.628 2.628 0 0 0-2.625-2.625z"/></svg>