<svg xmlns="http://www.w3.org/2000/svg" width="21" height="21" viewBox="0 0 21 21"><path fill="#272727" d="M10.471 0C4.688 0 0 4.688 0 10.471s4.688 10.471 10.471 10.471 10.471-4.688 10.471-10.471S16.254 0 10.471 0zm-.159 2.08a1.355 1.355 0 1 1 .004 2.71 1.355 1.355 0 0 1-.004-2.71zm5.868 4.373l-4.029.509.002 4.033 1.952 6.515c.103.411-.144.823-.551.925s-.823-.122-.925-.534L10.63 11.97h-.616l-1.839 6.054a.755.755 0 0 1-.988.423c-.391-.152-.629-.597-.475-.992l1.689-6.394V6.962l-3.712-.505c-.381-.031-.64-.366-.609-.747a.7.7 0 0 1 .755-.638l4.509.388h1.978l4.802-.396a.69.69 0 0 1 .718.666.694.694 0 0 1-.661.723z"/></svg>