<svg xmlns="http://www.w3.org/2000/svg" width="32" height="32" viewBox="0 0 32 32"><path d="M16.698 17.25c-3.916 0-7.667 1.752-10.087 8.804s2.92 6.49 6.29 5.033c3.263-1.411 4.505-1.626 8.435.242 3.7 1.759 6.862-.077 5.543-3.929s-5.764-10.15-10.181-10.15zM9.29 1.362c-2.233.534-3.413 3.567-2.636 6.776s3.216 5.378 5.449 4.844a.353.353 0 0 0 .031-.008c2.233-.534 3.413-3.567 2.636-6.776-.334-1.381-.977-2.57-1.778-3.433-1.06-1.142-2.399-1.715-3.671-1.411a.353.353 0 0 0-.031.008zm12.933-.112c-2.247-.47-4.611 1.77-5.28 5.003-.384 1.858-.125 3.64.591 4.909.53.939 1.311 1.596 2.266 1.796l.024.005c2.247.47 4.611-1.77 5.28-5.003s-.61-6.235-2.857-6.705l-.024-.005zM.643 17.929c1.234 2.855 3.836 4.478 5.811 3.625 1.13-.488 1.81-1.681 1.953-3.147.107-1.096-.085-2.345-.613-3.566l-.002-.005c-1.234-2.855-3.836-4.478-5.811-3.625S-.594 15.07.641 17.925l.002.005zm24.905 3.12c1.124.493 2.454.181 3.62-.709.878-.669 1.662-1.665 2.196-2.889 1.242-2.851.653-5.864-1.317-6.728l-.026-.011c-1.97-.865-4.574.746-5.816 3.598s-.653 5.864 1.317 6.728l.026.011z"/></svg>