<svg xmlns="http://www.w3.org/2000/svg" width="32" height="32" viewBox="0 0 32 32"><path d="M8.914 30.426c-.396-.79-.72-1.452-.72-1.47s.675.069 1.5.193 1.517.209 1.538.188-.391-3.49-.916-7.708l-.954-7.67L6.623 3.858l-.985.981c-.68.678-1.001.939-1.037.843-.029-.076-.305-.925-.615-1.888-.466-1.447-.536-1.75-.407-1.75.086 0 3.262-.28 7.059-.623C16.745.87 17.801.798 19.794.796l2.253-.001 3.452 1.274 3.098 3.981.335 4.894-1.033 1.854c-.568 1.02-1.062 1.886-1.099 1.926s-.97.508-2.074 1.039l-2.008.967-2.253-.157c-1.239-.087-2.999-.268-3.911-.404s-1.685-.219-1.719-.186c-.052.052 3.007 11.54 3.102 11.651.018.021.724-.291 1.569-.695s1.57-.734 1.613-.734c.099 0 .777 2.426.699 2.502-.032.031-1.362.172-2.955.314l-2.896.257-3.124 1.292c-1.718.711-3.143 1.292-3.167 1.292s-.368-.647-.764-1.437zM19.7 14.589l1.486-.495.582-.632c1.289-1.399 1.273-1.376 1.582-2.369.162-.521.396-1.595.518-2.386l.223-1.438-.528-1.007c-.474-.904-.637-1.112-1.596-2.036l-1.068-1.029-3.441-1.279-1.755.422c-1.547.372-1.755.445-1.758.614-.003.209.882 11.781.903 11.811.031.044 2.36.295 2.837.306.401.009.884-.107 2.013-.483z"/></svg>