<svg xmlns="http://www.w3.org/2000/svg" width="32" height="32" viewBox="0 0 32 32"><path d="M8.914 30.426c-.396-.79-.72-1.452-.72-1.47s.675.07 1.5.193 1.517.208 1.538.187-.39-3.49-.916-7.708l-.954-7.67-2.74-10.102-.984.98c-.68.68-1 .94-1.037.844-.028-.076-.304-.925-.614-1.888-.466-1.447-.536-1.75-.407-1.75.085 0 3.26-.28 7.058-.623C16.745.87 17.8.8 19.794.797h2.253L25.5 2.068l3.097 3.98.335 4.894-1.033 1.854c-.57 1.02-1.063 1.886-1.1 1.926s-.97.508-2.074 1.04l-2.008.966-2.253-.157c-1.24-.087-3-.268-3.91-.404s-1.686-.22-1.72-.187c-.052.052 3.007 11.54 3.102 11.65.018.022.724-.29 1.57-.694s1.57-.735 1.612-.735c.098 0 .776 2.426.698 2.502-.032.03-1.362.172-2.955.314l-2.896.258-3.124 1.292c-1.718.71-3.143 1.292-3.167 1.292s-.368-.647-.764-1.437zM19.7 14.59l1.486-.496.582-.632c1.29-1.4 1.273-1.376 1.582-2.37.162-.52.396-1.594.518-2.385l.223-1.438-.527-1.008c-.474-.904-.637-1.112-1.596-2.036L20.9 3.196 17.457 1.92l-1.755.422c-1.547.372-1.755.445-1.758.614-.003.21.882 11.78.903 11.81.03.045 2.36.296 2.837.307.4.01.884-.106 2.013-.482z"/></svg>