<svg xmlns="http://www.w3.org/2000/svg" width="32" height="32" viewBox="0 0 32 32"><path d="M16.698 17.25c-3.916 0-7.667 1.752-10.087 8.804s2.92 6.49 6.29 5.033c3.264-1.41 4.506-1.626 8.436.242 3.7 1.758 6.862-.078 5.543-3.93s-5.765-10.15-10.182-10.15zM9.29 1.362c-2.233.534-3.413 3.567-2.636 6.776s3.216 5.378 5.45 4.844l.03-.008c2.233-.534 3.413-3.567 2.636-6.776-.334-1.38-.977-2.57-1.778-3.433-1.06-1.142-2.4-1.715-3.67-1.41-.01 0-.022.004-.032.007zm12.933-.112c-2.247-.47-4.61 1.77-5.28 5.003-.384 1.858-.125 3.64.59 4.91.53.938 1.312 1.595 2.267 1.795l.024.005c2.247.47 4.61-1.77 5.28-5.003s-.61-6.235-2.857-6.705l-.024-.005zM.643 17.93c1.234 2.854 3.836 4.477 5.81 3.624 1.13-.488 1.81-1.68 1.954-3.147.107-1.096-.085-2.345-.613-3.566l-.002-.004c-1.234-2.855-3.836-4.478-5.81-3.625S-.595 15.07.64 17.926v.005zm24.905 3.12c1.124.492 2.454.18 3.62-.71.878-.67 1.662-1.665 2.196-2.89 1.242-2.85.653-5.863-1.317-6.727l-.026-.01c-1.97-.866-4.573.745-5.815 3.597s-.653 5.864 1.317 6.728l.026.01z"/></svg>