<?xml version="1.0" encoding="utf-8"?>
<!-- Generated by IcoMoon.io -->
<!DOCTYPE svg PUBLIC "-//W3C//DTD SVG 1.1//EN" "http://www.w3.org/Graphics/SVG/1.1/DTD/svg11.dtd">
<svg version="1.1" xmlns="http://www.w3.org/2000/svg" xmlns:xlink="http://www.w3.org/1999/xlink" width="21" height="21" viewBox="0 0 21 21">
<path fill="#272727" d="M21 11.813v-1.313h-3.964c-0.12-1.491-0.652-2.851-1.47-3.943h3.321l1.437-5.747-1.273-0.318-1.188 4.753h-3.582c-0.018-0.014-0.037-0.028-0.055-0.042 0.138-0.4 0.213-0.829 0.213-1.275 0-2.169-1.763-3.927-3.937-3.927s-3.938 1.758-3.938 3.927c0 0.446 0.075 0.876 0.213 1.275-0.018 0.014-0.037 0.028-0.055 0.042h-3.582l-1.188-4.753-1.273 0.318 1.437 5.747h3.321c-0.818 1.091-1.35 2.452-1.47 3.943h-3.964v1.313h3.966c0.078 0.936 0.318 1.821 0.69 2.62h-2.543l-1.437 5.747 1.273 0.318 1.188-4.753h2.304c1.204 1.6 3.023 2.62 5.058 2.62s3.855-1.020 5.058-2.62h2.304l1.188 4.753 1.273-0.318-1.437-5.747h-2.543c0.372-0.799 0.612-1.683 0.69-2.62h3.966z"></path>
</svg>
