<?xml version="1.0" encoding="utf-8"?>
<!-- Generated by IcoMoon.io -->
<!DOCTYPE svg PUBLIC "-//W3C//DTD SVG 1.1//EN" "http://www.w3.org/Graphics/SVG/1.1/DTD/svg11.dtd">
<svg version="1.1" xmlns="http://www.w3.org/2000/svg" xmlns:xlink="http://www.w3.org/1999/xlink" width="27" height="17" viewBox="0 0 27 17">
<path fill="#272727" d="M0 1.444v14.112c0 0.798 0.646 1.444 1.443 1.444h24.183c0.797 0 1.443-0.646 1.443-1.444v-14.112c0-0.798-0.646-1.444-1.443-1.444h-24.183c-0.797 0-1.443 0.646-1.443 1.444zM6.467 9.346c0 0-0.010-3.23 0.001-4.718 0.146-0.869 1.036-1.52 1.908-1.441h2.429c-0.003 2.958-0.002 5.915-0.007 8.873-0.027 0.875-0.79 1.641-1.667 1.663-0.888 0.003-1.776 0-2.663 0.001v-3.695c0.659 0.121 1.322 0.251 1.996 0.212 0.647-0.034 1.427-0.133 1.798-0.738 0.274-0.447 0.151-0.98 0.174-1.475l-0.008-1.264c-0.5 0.003-1 0.006-1.5 0.008-0.007 0.736 0.015 1.473-0.012 2.207-0.058 0.488-0.58 0.739-1.029 0.694-0.519-0.005-0.981-0.199-1.42-0.328v0zM11.364 7.311c0.006-0.832-0.011-1.664 0.009-2.495 0.061-0.792 0.726-1.459 1.509-1.555 0.787-0.026 1.576-0.004 2.364-0.011h0.458c-0.002 2.972 0.004 5.944-0.003 8.915-0.057 0.923-0.947 1.698-1.87 1.611h-2.467v-4.044c0.643 0.508 1.512 0.584 2.305 0.574 0.521-0.014 1.039-0.091 1.541-0.229-0.004-0.244-0.007-0.489-0.011-0.733-0.709 0.341-1.587 0.582-2.327 0.194-0.587-0.336-0.656-1.183-0.342-1.728 0.388-0.565 1.171-0.582 1.781-0.462 0.299 0.027 0.701 0.294 0.899 0.288v-0.671c-1.023-0.259-2.119-0.342-3.144-0.049-0.255 0.087-0.504 0.21-0.702 0.396v0zM16.203 10.149h2.732c0.508 0.019 1.127-0.306 1.115-0.879 0.009-0.531-0.538-0.834-1.007-0.872 0.375-0.044 0.758-0.307 0.794-0.709 0.087-0.525-0.423-0.9-0.902-0.911-0.91-0.015-1.821-0.002-2.732-0.006v-1.76c-0.062-0.915 0.712-1.764 1.621-1.819 0.904-0.012 1.81-0.002 2.714-0.005v8.767c0.045 0.888-0.712 1.684-1.584 1.763-0.917 0.008-1.834 0.001-2.751 0.003v-3.572zM17.071 7.336h0.937c0 0 0.439 0 0.439 0.429s-0.439 0.43-0.439 0.43h-0.937v-0.859zM18.074 8.699v0c0 0 0.494-0.029 0.494 0.461s-0.491 0.461-0.494 0.461h-1.003v-0.922h1.003z"></path>
</svg>
