<?xml version="1.0" encoding="UTF-8"?>
<svg width="61px" height="40px" viewBox="0 0 61 40" version="1.1" xmlns="http://www.w3.org/2000/svg" xmlns:xlink="http://www.w3.org/1999/xlink">
    <!-- Generator: Sketch 43.2 (39069) - http://www.bohemiancoding.com/sketch -->
    <title>mastercard</title>
    <desc>Created with Sketch.</desc>
    <defs></defs>
    <g id="Page-1" stroke="none" stroke-width="1" fill="none" fill-rule="evenodd">
        <g id="credit_cards" transform="translate(-209.000000, -280.000000)" fill-rule="nonzero">
            <g id="Group" transform="translate(129.000000, 279.000000)">
                <g transform="translate(0.000000, 1.000000)" id="mastercard">
                    <g transform="translate(80.000000, 0.000000)">
                        <path d="M60.75,35 C60.75,37.75 58.5,40 55.75,40 L5.75,40 C3,40 0.75,37.75 0.75,35 L0.75,5 C0.75,2.25 3,0 5.75,0 L55.75,0 C58.5,0 60.75,2.25 60.75,5 L60.75,35 Z" id="Shape" fill="#5565AF"></path>
                        <path d="M59.281,1.469 C60.187,2.375 60.75,3.625 60.75,5 L60.75,20 L60.75,35 C60.75,36.375 60.188,37.625 59.281,38.531 C58.374,39.437 57.125,40 55.75,40 L30.75,40 L5.75,40 C4.375,40 3.125,39.438 2.219,38.531 L59.281,1.469 Z" id="Shape" fill="#FFFFFF" opacity="0.04"></path>
                        <g id="Group" transform="translate(13.000000, 10.000000)" fill="#EA564B">
                            <path d="M17.75,3.4 C15.917,1.32 13.24,0 10.25,0 C4.728,0 0.25,4.477 0.25,10 C0.25,15.521 4.728,20 10.25,20 C13.24,20 15.917,18.68 17.75,16.599 C16.198,14.837 15.25,12.534 15.25,10 C15.25,7.466 16.198,5.162 17.75,3.4 Z" id="Shape"></path>
                            <path d="M17.75,3.4 C16.198,5.162 15.25,7.467 15.25,10 C15.25,12.533 16.198,14.837 17.75,16.599 C19.302,14.837 20.25,12.534 20.25,10 C20.25,7.466 19.302,5.162 17.75,3.4 Z" id="Shape"></path>
                        </g>
                        <path d="M38.25,10 C35.26,10 32.583,11.32 30.75,13.4 C30.317,13.892 29.938,14.43 29.606,15 L31.894,15 C32.258,15.625 32.541,16.299 32.765,17 L28.721,17 C28.518,17.643 28.371,18.309 28.302,19 L33.181,19 C33.215,19.33 33.249,19.66 33.249,20 C33.249,20.338 33.229,20.671 33.196,21 L28.301,21 C28.37,21.691 28.517,22.357 28.72,23 L32.776,23 C32.553,23.704 32.254,24.372 31.89,25 L29.605,25 C29.936,25.568 30.316,26.107 30.749,26.599 C32.582,28.68 35.259,30 38.249,30 C43.771,30 48.249,25.521 48.249,20 C48.25,14.477 43.772,10 38.25,10 Z" id="Shape" fill="#E9D419"></path>
                        <path d="M55.75,1 C57.956,1 59.75,2.794 59.75,5 L59.75,35 C59.75,37.206 57.956,39 55.75,39 L5.75,39 C3.544,39 1.75,37.206 1.75,35 L1.75,5 C1.75,2.794 3.544,1 5.75,1 L55.75,1 L55.75,1 Z M55.75,0 L5.75,0 C3,0 0.75,2.25 0.75,5 L0.75,35 C0.75,37.75 3,40 5.75,40 L55.75,40 C58.5,40 60.75,37.75 60.75,35 L60.75,5 C60.75,2.25 58.5,0 55.75,0 L55.75,0 Z" id="Shape" fill="#7684B7"></path>
                    </g>
                </g>
            </g>
        </g>
    </g>
</svg>