<?xml version="1.0" encoding="UTF-8"?>
<svg width="61px" height="40px" viewBox="0 0 61 40" version="1.1" xmlns="http://www.w3.org/2000/svg" xmlns:xlink="http://www.w3.org/1999/xlink">
    <!-- Generator: Sketch 43.2 (39069) - http://www.bohemiancoding.com/sketch -->
    <title>visa</title>
    <desc>Created with Sketch.</desc>
    <defs></defs>
    <g id="Page-1" stroke="none" stroke-width="1" fill="none" fill-rule="evenodd">
        <g id="credit_cards" transform="translate(-129.000000, -280.000000)" fill-rule="nonzero">
            <g id="Group" transform="translate(129.000000, 279.000000)">
                <g transform="translate(0.000000, 1.000000)" id="visa">
                    <g>
                        <path d="M60.75,35 C60.75,37.75 58.5,40 55.75,40 L5.75,40 C3,40 0.75,37.75 0.75,35 L0.75,5 C0.75,2.25 3,0 5.75,0 L55.75,0 C58.5,0 60.75,2.25 60.75,5 L60.75,35 Z" id="Shape" fill="#F3F4F4"></path>
                        <path d="M1.75,10 L1.75,5 C1.75,2.25 4,0 6.75,0 L54.75,0 C57.5,0 59.75,2.25 59.75,5 L59.75,10" id="Shape" fill="#5565AF"></path>
                        <path d="M59.75,30 L59.75,35 C59.75,37.75 57.5,39 54.75,39 L6.75,39 C4,39 1.75,37.75 1.75,35 L1.75,30" id="Shape" fill="#E6A124"></path>
                        <g id="Group" transform="translate(15.000000, 14.000000)" fill="#5565AF">
                            <path d="M3.137,9.379 C3.543,8.229 3.828,7.492 3.996,7.168 L7.371,0.293 L9.84,0.293 L3.996,11.715 L1.387,11.715 L0.395,0.293 L2.7,0.293 L3.098,7.168 C3.118,7.402 3.129,7.75 3.129,8.207 C3.117,8.744 3.102,9.135 3.082,9.379 L3.137,9.379 Z" id="Shape"></path>
                            <polygon id="Shape" points="8.809 11.715 11.247 0.293 13.63 0.293 11.192 11.715"></polygon>
                            <path d="M20.934,8.34 C20.934,9.43 20.547,10.289 19.778,10.922 C19.007,11.555 17.962,11.871 16.645,11.871 C15.493,11.871 14.567,11.637 13.864,11.168 L13.864,9.027 C14.868,9.589 15.802,9.871 16.661,9.871 C17.243,9.871 17.7,9.762 18.028,9.539 C18.356,9.318 18.52,9.016 18.52,8.629 C18.52,8.406 18.485,8.209 18.415,8.039 C18.345,7.871 18.243,7.713 18.114,7.566 C17.983,7.42 17.661,7.156 17.145,6.769 C16.426,6.252 15.92,5.744 15.629,5.237 C15.336,4.732 15.191,4.188 15.191,3.604 C15.191,2.932 15.351,2.333 15.675,1.803 C15.997,1.275 16.456,0.864 17.054,0.569 C17.65,0.275 18.335,0.128 19.113,0.128 C20.242,0.128 21.277,0.386 22.215,0.901 L21.363,2.721 C20.551,2.336 19.801,2.143 19.113,2.143 C18.679,2.143 18.326,2.26 18.051,2.495 C17.774,2.729 17.637,3.04 17.637,3.425 C17.637,3.743 17.723,4.021 17.895,4.257 C18.067,4.494 18.452,4.808 19.051,5.198 C19.68,5.615 20.153,6.075 20.465,6.577 C20.777,7.082 20.934,7.668 20.934,8.34 Z" id="Shape"></path>
                            <path d="M28.598,8.996 L24.903,8.996 L23.559,11.715 L21.059,11.715 L27.043,0.246 L29.957,0.246 L31.105,11.715 L28.785,11.715 L28.598,8.996 Z M28.48,6.965 L28.277,4.231 C28.224,3.549 28.199,2.89 28.199,2.254 L28.199,1.973 C27.969,2.598 27.685,3.26 27.347,3.957 L25.878,6.965 L28.48,6.965 Z" id="Shape"></path>
                        </g>
                        <path d="M59.281,1.469 C60.187,2.375 60.75,3.625 60.75,5 L60.75,20 L60.75,35 C60.75,36.375 60.188,37.625 59.281,38.531 C58.374,39.437 57.125,40 55.75,40 L30.75,40 L5.75,40 C4.375,40 3.125,39.438 2.219,38.531 L59.281,1.469 Z" id="Shape" fill="#FFFFFF" opacity="0.04"></path>
                        <path d="M55.75,1 C57.956,1 59.75,2.794 59.75,5 L59.75,35 C59.75,37.206 57.956,39 55.75,39 L5.75,39 C3.544,39 1.75,37.206 1.75,35 L1.75,5 C1.75,2.794 3.544,1 5.75,1 L55.75,1 L55.75,1 Z M55.75,0 L5.75,0 C3,0 0.75,2.25 0.75,5 L0.75,35 C0.75,37.75 3,40 5.75,40 L55.75,40 C58.5,40 60.75,37.75 60.75,35 L60.75,5 C60.75,2.25 58.5,0 55.75,0 L55.75,0 Z" id="Shape" fill="#F8F8F9"></path>
                    </g>
                </g>
            </g>
        </g>
    </g>
</svg>