<?xml version="1.0" encoding="utf-8"?>
<!-- Generated by IcoMoon.io -->
<!DOCTYPE svg PUBLIC "-//W3C//DTD SVG 1.1//EN" "http://www.w3.org/Graphics/SVG/1.1/DTD/svg11.dtd">
<svg version="1.1" xmlns="http://www.w3.org/2000/svg" xmlns:xlink="http://www.w3.org/1999/xlink" width="26" height="17" viewBox="0 0 26 17">
<path fill="#272727" d="M21.122 8.106c-0.137-0.122-0.309-0.183-0.516-0.183-0.274 0-0.503 0.094-0.688 0.283s-0.278 0.42-0.278 0.694c0 0.207 0.067 0.37 0.2 0.488s0.307 0.178 0.522 0.178c0.266 0 0.494-0.093 0.683-0.278s0.283-0.411 0.283-0.677c-0-0.215-0.069-0.383-0.205-0.505z"></path>
<path fill="#272727" d="M8.511 8.106c-0.137-0.122-0.309-0.183-0.516-0.183-0.274 0-0.503 0.094-0.688 0.283s-0.278 0.42-0.278 0.694c0 0.207 0.065 0.37 0.194 0.488s0.301 0.178 0.516 0.178c0.274 0 0.505-0.090 0.694-0.272s0.283-0.409 0.283-0.683c0-0.215-0.069-0.383-0.205-0.505z"></path>
<path fill="#272727" d="M24.601 0h-22.735c-1.029 0-1.866 0.837-1.866 1.866v13.267c0 1.029 0.837 1.866 1.866 1.866h22.735c1.029 0 1.866-0.837 1.866-1.866v-13.267c0-1.029-0.837-1.866-1.866-1.866zM4.098 8.744c-0.022 0-0.074-0.004-0.155-0.011s-0.152-0.011-0.211-0.011c-0.059 0-0.122 0.006-0.189 0.017s-0.122 0.035-0.166 0.072c-0.044 0.037-0.070 0.085-0.078 0.144l-0.2 1.221c-0.015 0.141-0.096 0.211-0.244 0.211h-0.844c-0.044 0-0.081-0.018-0.111-0.056s-0.041-0.078-0.033-0.122l0.722-4.529c0.015-0.141 0.092-0.211 0.233-0.211h1.776c0.459 0 0.831 0.098 1.116 0.294s0.427 0.513 0.427 0.949c0 0.637-0.181 1.134-0.544 1.493s-0.862 0.538-1.499 0.538zM10.026 7.279l-0.455 2.897c-0.022 0.141-0.104 0.211-0.244 0.211h-0.766c-0.096 0-0.144-0.059-0.144-0.178 0-0.067 0.015-0.144 0.044-0.233-0.133 0.148-0.311 0.266-0.533 0.355s-0.437 0.133-0.644 0.133c-0.429 0-0.772-0.129-1.027-0.389s-0.383-0.607-0.383-1.043c0-0.54 0.187-1.010 0.561-1.41s0.827-0.6 1.36-0.6c0.503 0 0.855 0.148 1.055 0.444 0.022-0.244 0.085-0.366 0.189-0.366h0.844c0.044 0 0.081 0.019 0.111 0.056s0.041 0.078 0.033 0.122zM11.481 11.531h-0.855c-0.096 0-0.144-0.048-0.144-0.144 0-0.059 0.303-0.503 0.91-1.332-0.007-0.029-0.094-0.289-0.261-0.777s-0.322-0.944-0.466-1.366c-0.144-0.422-0.216-0.64-0.216-0.655 0-0.037 0.015-0.072 0.044-0.105s0.063-0.050 0.1-0.050h0.833c0.126 0 0.207 0.059 0.244 0.178l0.488 1.665 1.177-1.732c0.052-0.074 0.118-0.111 0.2-0.111h0.855c0.037 0 0.070 0.017 0.1 0.050s0.044 0.068 0.044 0.105c0 0.037-0.007 0.063-0.022 0.078l-2.831 4.085c-0.052 0.074-0.118 0.111-0.2 0.111zM16.709 8.744c-0.022 0-0.074-0.004-0.155-0.011s-0.152-0.011-0.211-0.011c-0.059 0-0.122 0.006-0.189 0.017s-0.122 0.035-0.166 0.072c-0.044 0.037-0.070 0.085-0.078 0.144l-0.2 1.288c-0.030 0.096-0.089 0.144-0.178 0.144h-0.91c-0.044 0-0.082-0.018-0.111-0.056s-0.041-0.078-0.033-0.122l0.722-4.529c0.015-0.141 0.096-0.211 0.244-0.211h1.765c0.459 0 0.831 0.098 1.116 0.294s0.427 0.513 0.427 0.949c0 0.637-0.181 1.134-0.544 1.493s-0.862 0.538-1.499 0.538zM22.638 7.279l-0.455 2.897c-0.022 0.141-0.104 0.211-0.244 0.211h-0.766c-0.096 0-0.144-0.059-0.144-0.178 0-0.029 0.007-0.074 0.022-0.133s0.022-0.092 0.022-0.1c-0.126 0.148-0.3 0.266-0.522 0.355s-0.44 0.133-0.655 0.133c-0.429 0-0.772-0.129-1.027-0.389s-0.383-0.607-0.383-1.043c0-0.54 0.187-1.010 0.561-1.41s0.827-0.6 1.36-0.6c0.511 0 0.862 0.148 1.055 0.444 0.022-0.244 0.085-0.366 0.189-0.366h0.844c0.044 0 0.081 0.019 0.111 0.056s0.041 0.078 0.033 0.122zM24.603 5.636l-0.722 4.541c-0.015 0.141-0.093 0.211-0.233 0.211h-0.733c-0.044 0-0.081-0.017-0.111-0.050s-0.045-0.068-0.045-0.105l0.011-0.022 0.722-4.618c0.015-0.081 0.063-0.122 0.144-0.122h0.821c0.096 0 0.144 0.052 0.144 0.155v0.011z"></path>
<path fill="#272727" d="M17.298 6.618c-0.089-0.078-0.181-0.124-0.277-0.139s-0.226-0.022-0.389-0.022h-0.2c-0.082 0-0.13 0.041-0.144 0.122l-0.189 1.188 0.355-0.011c0.326 0 0.57-0.055 0.733-0.166s0.244-0.322 0.244-0.633c-0-0.148-0.044-0.261-0.133-0.339z"></path>
<path fill="#272727" d="M4.664 6.585c-0.133-0.085-0.348-0.128-0.644-0.128h-0.211c-0.081 0-0.13 0.041-0.144 0.122l-0.189 1.188 0.366-0.011c0.289 0 0.511-0.041 0.666-0.122s0.251-0.252 0.289-0.511c0.044-0.274 0-0.453-0.133-0.538z"></path>
</svg>
