<?xml version="1.0" encoding="UTF-8"?>
<svg width="61px" height="40px" viewBox="0 0 61 40" version="1.1" xmlns="http://www.w3.org/2000/svg" xmlns:xlink="http://www.w3.org/1999/xlink">
    <!-- Generator: Sketch 43.2 (39069) - http://www.bohemiancoding.com/sketch -->
    <title>discover</title>
    <desc>Created with Sketch.</desc>
    <defs></defs>
    <g id="Page-1" stroke="none" stroke-width="1" fill="none" fill-rule="evenodd">
        <g id="credit_cards" transform="translate(-449.000000, -280.000000)" fill-rule="nonzero">
            <g id="Group" transform="translate(129.000000, 279.000000)">
                <g transform="translate(0.000000, 1.000000)" id="discover">
                    <g transform="translate(320.000000, 0.000000)">
                        <path d="M60.75,35 C60.75,37.75 58.5,40 55.75,40 L5.75,40 C3,40 0.75,37.75 0.75,35 L0.75,5 C0.75,2.25 3,0 5.75,0 L55.75,0 C58.5,0 60.75,2.25 60.75,5 L60.75,35 Z" id="Shape" fill="#FFF9F0"></path>
                        <g id="Group" transform="translate(10.000000, 16.000000)">
                            <path d="M5.885,3.943 C5.885,4.945 5.6,5.712 5.031,6.245 C4.46,6.777 3.636,7.044 2.559,7.044 L0.835,7.044 L0.835,0.959 L2.745,0.959 C3.739,0.959 4.51,1.222 5.058,1.746 C5.61,2.27 5.885,3.003 5.885,3.943 Z M4.545,3.977 C4.545,2.67 3.967,2.017 2.815,2.017 L2.127,2.017 L2.127,5.978 L2.681,5.978 C3.924,5.979 4.545,5.311 4.545,3.977 Z" id="Shape" fill="#414042"></path>
                            <polygon id="Shape" fill="#414042" points="6.976 7.044 6.976 0.959 8.266 0.959 8.266 7.044"></polygon>
                            <path d="M13.391,5.354 C13.391,5.905 13.194,6.336 12.797,6.653 C12.401,6.969 11.852,7.129 11.147,7.129 C10.499,7.129 9.923,7.006 9.423,6.763 L9.423,5.564 C9.834,5.749 10.182,5.876 10.466,5.953 C10.75,6.027 11.011,6.064 11.247,6.064 C11.529,6.064 11.747,6.009 11.898,5.902 C12.046,5.795 12.125,5.632 12.125,5.42 C12.125,5.301 12.092,5.195 12.024,5.102 C11.959,5.008 11.86,4.918 11.73,4.833 C11.601,4.748 11.338,4.609 10.942,4.421 C10.571,4.246 10.293,4.077 10.105,3.917 C9.918,3.757 9.771,3.57 9.66,3.355 C9.549,3.14 9.494,2.89 9.494,2.605 C9.494,2.067 9.676,1.644 10.041,1.336 C10.407,1.027 10.91,0.874 11.555,0.874 C11.871,0.874 12.173,0.911 12.46,0.986 C12.747,1.06 13.048,1.167 13.361,1.302 L12.945,2.305 C12.62,2.172 12.35,2.077 12.138,2.026 C11.925,1.974 11.716,1.947 11.512,1.947 C11.267,1.947 11.079,2.003 10.95,2.118 C10.819,2.232 10.754,2.38 10.754,2.563 C10.754,2.677 10.78,2.775 10.833,2.861 C10.886,2.946 10.97,3.027 11.085,3.106 C11.2,3.185 11.474,3.327 11.903,3.533 C12.471,3.805 12.861,4.078 13.073,4.351 C13.285,4.622 13.391,4.957 13.391,5.354 Z" id="Shape" fill="#414042"></path>
                            <path d="M17.078,1.945 C16.592,1.945 16.217,2.129 15.95,2.492 C15.682,2.857 15.551,3.367 15.551,4.018 C15.551,5.374 16.06,6.053 17.078,6.053 C17.506,6.053 18.021,5.949 18.631,5.733 L18.631,6.815 C18.131,7.024 17.573,7.127 16.957,7.127 C16.072,7.127 15.395,6.857 14.926,6.32 C14.457,5.784 14.223,5.013 14.223,4.008 C14.223,3.375 14.339,2.821 14.57,2.346 C14.799,1.868 15.131,1.505 15.562,1.251 C15.995,0.997 16.5,0.87 17.08,0.87 C17.671,0.87 18.266,1.013 18.861,1.299 L18.445,2.348 C18.216,2.24 17.989,2.146 17.757,2.065 C17.526,1.984 17.3,1.945 17.078,1.945 Z" id="Shape" fill="#414042"></path>
                            <path d="M28.959,0.959 L30.262,0.959 L28.195,7.044 L26.788,7.044 L24.724,0.959 L26.028,0.959 L27.173,4.58 C27.236,4.795 27.304,5.042 27.371,5.328 C27.437,5.613 27.48,5.808 27.498,5.92 C27.528,5.665 27.632,5.221 27.81,4.58 L28.959,0.959 Z" id="Shape" fill="#414042"></path>
                            <polygon id="Shape" fill="#414042" points="34.532 7.044 31.027 7.044 31.027 0.959 34.532 0.959 34.532 2.017 32.317 2.017 32.317 3.353 34.379 3.353 34.379 4.41 32.317 4.41 32.317 5.978 34.532 5.978"></polygon>
                            <path d="M37.092,4.709 L37.092,7.044 L35.802,7.044 L35.802,0.959 L37.575,0.959 C38.402,0.959 39.013,1.109 39.411,1.411 C39.807,1.712 40.006,2.168 40.006,2.782 C40.006,3.139 39.907,3.459 39.711,3.737 C39.514,4.016 39.235,4.235 38.875,4.393 C39.79,5.759 40.386,6.644 40.664,7.043 L39.232,7.043 L37.779,4.708 L37.092,4.709 L37.092,4.709 Z M37.092,3.66 L37.509,3.66 C37.916,3.66 38.218,3.592 38.412,3.457 C38.605,3.32 38.703,3.106 38.703,2.815 C38.703,2.526 38.603,2.322 38.405,2.199 C38.207,2.076 37.9,2.016 37.484,2.016 L37.09,2.016 L37.092,3.66 L37.092,3.66 Z" id="Shape" fill="#414042"></path>
                            <circle id="Oval" fill="#E6A124" cx="21.816" cy="4.002" r="3.043"></circle>
                        </g>
                        <path d="M60.75,27.5 L60.75,35 C60.75,35.688 60.609,36.344 60.355,36.941 C60.1,37.538 59.734,38.078 59.281,38.531 C58.828,38.984 58.289,39.35 57.691,39.605 C57.092,39.859 56.437,40 55.75,40 L33.293,40 L10.836,40 L60.75,27.5 Z" id="Shape" fill="#E6A124"></path>
                        <path d="M59.281,1.469 C60.187,2.375 60.75,3.625 60.75,5 L60.75,20 L60.75,35 C60.75,36.375 60.188,37.625 59.281,38.531 C58.374,39.437 57.125,40 55.75,40 L30.75,40 L5.75,40 C4.375,40 3.125,39.438 2.219,38.531 L59.281,1.469 Z" id="Shape" fill="#FFFFFF" opacity="0.08"></path>
                        <path d="M55.75,1 C57.956,1 59.75,2.794 59.75,5 L59.75,35 C59.75,37.206 57.956,39 55.75,39 L5.75,39 C3.544,39 1.75,37.206 1.75,35 L1.75,5 C1.75,2.794 3.544,1 5.75,1 L55.75,1 L55.75,1 Z M55.75,0 L5.75,0 C3,0 0.75,2.25 0.75,5 L0.75,35 C0.75,37.75 3,40 5.75,40 L55.75,40 C58.5,40 60.75,37.75 60.75,35 L60.75,5 C60.75,2.25 58.5,0 55.75,0 L55.75,0 Z" id="Shape" fill="#F7F5F2"></path>
                    </g>
                </g>
            </g>
        </g>
    </g>
</svg>