<?xml version="1.0" encoding="utf-8"?>
<!-- Generated by IcoMoon.io -->
<!DOCTYPE svg PUBLIC "-//W3C//DTD SVG 1.1//EN" "http://www.w3.org/Graphics/SVG/1.1/DTD/svg11.dtd">
<svg version="1.1" xmlns="http://www.w3.org/2000/svg" xmlns:xlink="http://www.w3.org/1999/xlink" width="27" height="17" viewBox="0 0 27 17">
<path fill="#272727" d="M0 1.444c0-0.797 0.647-1.444 1.443-1.444h24.183c0.797 0 1.443 0.646 1.443 1.444v14.112c0 0.797-0.647 1.444-1.443 1.444h-24.183c-0.797 0-1.443-0.646-1.443-1.444v-14.112zM21.112 8.552c0-3.588-2.995-6.069-6.276-6.067h-2.824c-3.321-0.001-6.054 2.48-6.054 6.067 0 3.282 2.733 5.979 6.054 5.963h2.824c3.281 0.016 6.276-2.681 6.276-5.963zM12.025 2.982c-3.034 0.001-5.493 2.465-5.494 5.507 0.001 3.041 2.46 5.505 5.494 5.506 3.035-0.001 5.494-2.465 5.495-5.506s-2.46-5.506-5.495-5.507zM8.543 8.489c0.003-1.486 0.929-2.754 2.236-3.257v6.514c-1.306-0.503-2.233-1.77-2.236-3.257zM13.271 11.747v-6.516c1.307 0.502 2.235 1.771 2.237 3.258-0.002 1.488-0.93 2.755-2.237 3.258z"></path>
</svg>
