<?xml version="1.0" encoding="UTF-8"?>
<svg width="61px" height="40px" viewBox="0 0 61 40" version="1.1" xmlns="http://www.w3.org/2000/svg" xmlns:xlink="http://www.w3.org/1999/xlink">
    <!-- Generator: Sketch 43.2 (39069) - http://www.bohemiancoding.com/sketch -->
    <title>amex</title>
    <desc>Created with Sketch.</desc>
    <defs></defs>
    <g id="Page-1" stroke="none" stroke-width="1" fill="none" fill-rule="evenodd">
        <g id="credit_cards" transform="translate(-289.000000, -280.000000)" fill-rule="nonzero">
            <g id="Group" transform="translate(129.000000, 279.000000)">
                <g transform="translate(0.000000, 1.000000)" id="amex">
                    <g transform="translate(160.000000, 0.000000)">
                        <g id="Group">
                            <path d="M60.75,35 C60.75,37.75 58.5,40 55.75,40 L5.75,40 C3,40 0.75,37.75 0.75,35 L0.75,5 C0.75,2.25 3,0 5.75,0 L55.75,0 C58.5,0 60.75,2.25 60.75,5 L60.75,35 Z" id="Shape" fill="#5EC1EC"></path>
                            <path d="M59.281,1.469 C60.187,2.375 60.75,3.625 60.75,5 L60.75,20 L60.75,35 C60.75,36.375 60.188,37.625 59.281,38.531 C58.374,39.437 57.125,40 55.75,40 L30.75,40 L5.75,40 C4.375,40 3.125,39.438 2.219,38.531 L59.281,1.469 Z" id="Shape" fill="#5BBBE6"></path>
                            <g transform="translate(11.000000, 15.000000)" id="Shape" fill="#FFFFFF">
                                <path d="M7.305,9.922 L6.848,8.182 L3.833,8.182 L3.363,9.922 L0.608,9.922 L3.636,0.604 L6.981,0.604 L10.046,9.922 L7.305,9.922 Z M6.328,6.125 L5.928,4.602 C5.834,4.264 5.722,3.827 5.588,3.289 C5.455,2.751 5.367,2.366 5.324,2.134 C5.287,2.35 5.211,2.705 5.099,3.2 C4.987,3.695 4.738,4.671 4.353,6.126 L6.328,6.125 L6.328,6.125 Z"></path>
                                <path d="M15.094,9.922 L13.196,3.237 L13.139,3.237 C13.228,4.375 13.272,5.259 13.272,5.891 L13.272,9.921 L11.051,9.921 L11.051,0.64 L14.389,0.64 L16.326,7.23 L16.377,7.23 L18.274,0.64 L21.62,0.64 L21.62,9.921 L19.315,9.921 L19.315,5.852 C19.315,5.641 19.319,5.407 19.325,5.148 C19.331,4.889 19.36,4.257 19.411,3.25 L19.354,3.25 L17.481,9.922 L15.094,9.922 L15.094,9.922 Z"></path>
                                <polygon points="28.869 9.922 23.359 9.922 23.359 0.641 28.869 0.641 28.869 2.654 25.865 2.654 25.865 4.114 28.646 4.114 28.646 6.126 25.865 6.126 25.865 7.878 28.869 7.878"></polygon>
                                <polygon points="38.854 9.922 35.954 9.922 34.143 7.022 32.354 9.922 29.516 9.922 32.594 5.174 29.699 0.641 32.48 0.641 34.156 3.51 35.767 0.641 38.63 0.641 35.691 5.37"></polygon>
                            </g>
                            <g transform="translate(11.000000, 15.000000)" id="Shape" fill="#FFFFFF">
                                <path d="M7.305,9.922 L6.848,8.182 L3.833,8.182 L3.363,9.922 L0.608,9.922 L3.636,0.604 L6.981,0.604 L10.046,9.922 L7.305,9.922 Z M6.328,6.125 L5.928,4.602 C5.834,4.264 5.722,3.827 5.588,3.289 C5.455,2.751 5.367,2.366 5.324,2.134 C5.287,2.35 5.211,2.705 5.099,3.2 C4.987,3.695 4.738,4.671 4.353,6.126 L6.328,6.125 L6.328,6.125 Z"></path>
                                <path d="M15.094,9.922 L13.196,3.237 L13.139,3.237 C13.228,4.375 13.272,5.259 13.272,5.891 L13.272,9.921 L11.051,9.921 L11.051,0.64 L14.389,0.64 L16.326,7.23 L16.377,7.23 L18.274,0.64 L21.62,0.64 L21.62,9.921 L19.315,9.921 L19.315,5.852 C19.315,5.641 19.319,5.407 19.325,5.148 C19.331,4.889 19.36,4.257 19.411,3.25 L19.354,3.25 L17.481,9.922 L15.094,9.922 L15.094,9.922 Z"></path>
                                <polygon points="28.869 9.922 23.359 9.922 23.359 0.641 28.869 0.641 28.869 2.654 25.865 2.654 25.865 4.114 28.646 4.114 28.646 6.126 25.865 6.126 25.865 7.878 28.869 7.878"></polygon>
                                <polygon points="38.854 9.922 35.954 9.922 34.143 7.022 32.354 9.922 29.516 9.922 32.594 5.174 29.699 0.641 32.48 0.641 34.156 3.51 35.767 0.641 38.63 0.641 35.691 5.37"></polygon>
                            </g>
                        </g>
                        <path d="M55.75,1 C57.956,1 59.75,2.794 59.75,5 L59.75,35 C59.75,37.206 57.956,39 55.75,39 L5.75,39 C3.544,39 1.75,37.206 1.75,35 L1.75,5 C1.75,2.794 3.544,1 5.75,1 L55.75,1 L55.75,1 Z M55.75,0 L5.75,0 C3,0 0.75,2.25 0.75,5 L0.75,35 C0.75,37.75 3,40 5.75,40 L55.75,40 C58.5,40 60.75,37.75 60.75,35 L60.75,5 C60.75,2.25 58.5,0 55.75,0 L55.75,0 Z" id="Shape" fill="#9BCEE0"></path>
                    </g>
                </g>
            </g>
        </g>
    </g>
</svg>