<?xml version="1.0" encoding="utf-8"?>
<!-- Generated by IcoMoon.io -->
<!DOCTYPE svg PUBLIC "-//W3C//DTD SVG 1.1//EN" "http://www.w3.org/Graphics/SVG/1.1/DTD/svg11.dtd">
<svg version="1.1" xmlns="http://www.w3.org/2000/svg" xmlns:xlink="http://www.w3.org/1999/xlink" width="27" height="17" viewBox="0 0 27 17">
<path fill="#272727" d="M0 1.477c0-0.796 0.645-1.441 1.44-1.441h24.132c0.795 0 1.44 0.645 1.44 1.441v14.082c0 0.796-0.645 1.441-1.44 1.441h-24.132c-0.795 0-1.44-0.645-1.44-1.441v-14.082zM0 7.992h1.298l0.293-0.703h0.655l0.292 0.703h2.553v-0.537l0.228 0.54h1.325l0.228-0.548v0.545h6.345l-0.003-1.154h0.123c0.086 0.003 0.111 0.011 0.111 0.152v1.001h3.282v-0.269c0.265 0.141 0.676 0.269 1.218 0.269h1.381l0.295-0.703h0.655l0.289 0.703h2.66v-0.668l0.403 0.668h2.132v-4.413h-2.11v0.521l-0.295-0.521h-2.165v0.521l-0.271-0.521h-2.924c-0.49 0-0.92 0.068-1.267 0.258v-0.258h-2.018v0.258c-0.221-0.195-0.523-0.258-0.858-0.258h-7.373l-0.495 1.14-0.508-1.14h-2.322v0.521l-0.255-0.521h-1.98l-0.92 2.098v2.315h0zM8.2 7.371h-0.779l-0.003-2.478-1.101 2.478h-0.667l-1.104-2.48v2.48h-1.545l-0.292-0.706h-1.581l-0.295 0.706h-0.825l1.36-3.164h1.128l1.292 2.995v-2.995h1.239l0.994 2.146 0.913-2.146h1.264v3.164h0zM2.436 6.006l-0.52-1.261-0.517 1.261h1.037zM11.303 7.371v-0.654h-1.777v-0.632h1.735v-0.649h-1.735v-0.57h1.777v-0.659h-2.537v3.164h2.537zM14.88 5.059v0c0-0.353-0.144-0.559-0.384-0.701-0.246-0.141-0.531-0.152-0.92-0.152h-1.747v3.164h0.759v-1.151h0.815c0.273 0 0.443 0.024 0.554 0.135 0.138 0.152 0.12 0.426 0.12 0.616l0.003 0.399h0.766v-0.622c0-0.283-0.018-0.423-0.126-0.58-0.068-0.092-0.209-0.203-0.376-0.266 0.197-0.078 0.535-0.339 0.535-0.843zM13.886 5.504c-0.104 0.063-0.228 0.065-0.376 0.065h-0.923v-0.703h0.935c0.132 0 0.27 0.006 0.36 0.057 0.099 0.046 0.159 0.144 0.159 0.28 0 0.138-0.058 0.25-0.156 0.301v0zM16.095 7.371v-3.164h-0.775v3.164h0.775zM25.085 7.371h-1.076l-1.439-2.375v2.375h-1.547l-0.296-0.706h-1.578l-0.287 0.706h-0.889c-0.369 0-0.837-0.081-1.101-0.35-0.267-0.269-0.406-0.633-0.406-1.208 0-0.469 0.083-0.898 0.409-1.237 0.246-0.253 0.63-0.369 1.153-0.369h0.735v0.678h-0.72c-0.277 0-0.434 0.041-0.584 0.187-0.129 0.133-0.218 0.385-0.218 0.717 0 0.339 0.068 0.583 0.209 0.743 0.117 0.125 0.329 0.163 0.529 0.163h0.341l1.070-2.488h1.138l1.286 2.993v-2.993h1.156l1.335 2.203v-2.203h0.778v3.164zM20.468 6.006l-0.526-1.261-0.523 1.261h1.048zM27.013 12.409c-0.184 0.269-0.544 0.405-1.031 0.405h-1.467v-0.679h1.461c0.145 0 0.246-0.019 0.307-0.078 0.053-0.049 0.090-0.12 0.090-0.206 0-0.092-0.037-0.165-0.093-0.209-0.055-0.048-0.135-0.070-0.268-0.070-0.713-0.024-1.603 0.022-1.603-0.979 0-0.459 0.293-0.942 1.090-0.942h1.513v-0.63h-1.405c-0.424 0-0.732 0.101-0.95 0.258v-0.258h-2.079c-0.332 0-0.723 0.082-0.907 0.258v-0.258h-3.712v0.258c-0.295-0.212-0.794-0.258-1.024-0.258h-2.449v0.258c-0.234-0.225-0.754-0.258-1.070-0.258h-2.74l-0.627 0.676-0.587-0.676h-4.094v4.416h4.017l0.646-0.687 0.609 0.687 2.476 0.002v-1.039h0.243c0.329 0.005 0.716-0.008 1.058-0.155v1.192h2.042v-1.151h0.099c0.126 0 0.138 0.005 0.138 0.13v1.021h6.204c0.394 0 0.806-0.1 1.034-0.283v0.283h1.968c0.409 0 0.809-0.057 1.114-0.204v-0.823zM14.714 10.691c0-0.876-0.677-1.043-1.28-1.043h-2.427l-0.966 1.037-0.934-1.037h-3.054v3.165h3.008l0.972-1.048 0.935 1.048h1.476v-1.061h0.948c0.664 0 1.322-0.182 1.322-1.061zM8.676 12.154h-1.867v-0.63h1.667v-0.646h-1.667v-0.575h1.904l0.831 0.922-0.867 0.928zM11.687 12.525l-1.166-1.289 1.166-1.248v2.537zM13.425 11.109h-0.981v-0.806h0.99c0.274 0 0.464 0.111 0.464 0.388 0 0.274-0.182 0.418-0.473 0.418zM18.549 9.649v3.165h2.535v-0.657l-1.778-0.003v-0.63h1.735v-0.646h-1.735v-0.575h1.778v-0.654h-2.535zM17.589 11.343c0.2-0.079 0.538-0.337 0.538-0.842 0-0.361-0.151-0.559-0.39-0.703-0.249-0.132-0.529-0.149-0.914-0.149h-1.753v3.165h0.763v-1.156h0.812c0.277 0 0.446 0.027 0.557 0.14 0.141 0.147 0.123 0.429 0.123 0.619v0.396h0.762v-0.627c-0.003-0.279-0.019-0.423-0.126-0.578-0.065-0.092-0.203-0.204-0.372-0.266zM17.131 10.949c-0.102 0.060-0.227 0.065-0.375 0.065h-0.923v-0.711h0.935c0.135 0 0.271 0.003 0.362 0.057 0.098 0.051 0.157 0.149 0.157 0.285s-0.059 0.244-0.157 0.304zM23.983 11.144c0.148 0.152 0.227 0.345 0.227 0.67 0 0.681-0.427 0.999-1.193 0.999h-1.479v-0.679h1.473c0.144 0 0.246-0.019 0.31-0.078 0.052-0.049 0.090-0.12 0.090-0.206 0-0.092-0.041-0.165-0.093-0.209-0.058-0.048-0.138-0.070-0.27-0.070-0.71-0.024-1.6 0.022-1.6-0.979 0-0.459 0.29-0.942 1.086-0.942h1.522v0.674h-1.393c-0.138 0-0.228 0.005-0.304 0.057-0.083 0.051-0.114 0.127-0.114 0.228 0 0.119 0.071 0.201 0.166 0.236 0.080 0.028 0.166 0.036 0.296 0.036l0.409 0.011c0.412 0.010 0.695 0.081 0.867 0.255zM27.013 10.322h-1.384c-0.138 0-0.23 0.005-0.307 0.057-0.080 0.051-0.111 0.127-0.111 0.228 0 0.119 0.068 0.201 0.166 0.236 0.080 0.028 0.166 0.036 0.293 0.036l0.412 0.011c0.415 0.010 0.693 0.081 0.862 0.255 0.031 0.024 0.049 0.051 0.070 0.078v-0.9z"></path>
</svg>
