<?xml version="1.0" encoding="utf-8"?>
<!-- Generated by IcoMoon.io -->
<!DOCTYPE svg PUBLIC "-//W3C//DTD SVG 1.1//EN" "http://www.w3.org/Graphics/SVG/1.1/DTD/svg11.dtd">
<svg version="1.1" xmlns="http://www.w3.org/2000/svg" xmlns:xlink="http://www.w3.org/1999/xlink" width="27" height="17" viewBox="0 0 27 17">
<path fill="#272727" d="M0 1.444c0-0.798 0.646-1.444 1.443-1.444h24.183c0.797 0 1.443 0.646 1.443 1.444v14.112c0 0.798-0.646 1.444-1.443 1.444h-24.183c-0.797 0-1.443-0.646-1.443-1.444zM5.393 16.693h20.12c0.678 0 1.227-0.549 1.227-1.227v-6.476c0 0-7.539 5.321-21.347 7.703zM3.153 7.764c0.265-0.222 0.424-0.576 0.424-0.93s-0.159-0.697-0.424-0.919c-0.253-0.215-0.553-0.299-1.049-0.299h-0.206v2.442h0.206c0.495 0 0.808-0.089 1.049-0.293zM2.258 4.99h-1.125v3.693h1.119c0.595 0 1.024-0.132 1.402-0.426 0.448-0.349 0.713-0.874 0.713-1.418 0-1.090-0.866-1.849-2.109-1.849zM4.719 8.683h0.766v-3.693h-0.766zM7.359 6.398c-0.46-0.16-0.595-0.265-0.595-0.465 0-0.233 0.241-0.409 0.571-0.409 0.23 0 0.418 0.089 0.618 0.299l0.401-0.493c-0.329-0.271-0.724-0.409-1.154-0.409-0.695 0-1.225 0.454-1.225 1.058 0 0.509 0.247 0.769 0.966 1.013 0.3 0.099 0.453 0.166 0.53 0.21 0.153 0.094 0.23 0.227 0.23 0.382 0 0.299-0.253 0.521-0.595 0.521-0.365 0-0.66-0.172-0.836-0.492l-0.495 0.448c0.353 0.487 0.777 0.703 1.36 0.703 0.796 0 1.355-0.498 1.355-1.212 0-0.587-0.258-0.852-1.13-1.152zM8.73 6.829c0 1.085 0.907 1.927 2.073 1.927 0.33 0 0.612-0.061 0.961-0.215v-0.848c-0.306 0.288-0.578 0.404-0.925 0.404-0.772 0-1.319-0.526-1.319-1.274 0-0.709 0.565-1.268 1.284-1.268 0.366 0 0.642 0.123 0.961 0.415v-0.847c-0.336-0.16-0.613-0.227-0.943-0.227-1.161 0-2.091 0.859-2.091 1.932zM17.839 7.465l-1.048-2.48h-0.837l1.667 3.787h0.412l1.697-3.787h-0.831l-1.061 2.48zM20.077 8.683h2.173v-0.625h-1.407v-0.997h1.355v-0.625h-1.355v-0.82h1.407v-0.626h-2.173zM23.746 6.69c0.489 0 0.749-0.2 0.749-0.571 0-0.359-0.259-0.547-0.736-0.547h-0.236v1.118h0.224zM25.283 6.080c0-0.691-0.506-1.090-1.39-1.090h-1.136v3.693h0.765v-1.483h0.1l1.060 1.483h0.942l-1.236-1.556c0.577-0.11 0.895-0.481 0.895-1.047zM12.014 6.836c0 1.085 0.936 1.964 2.090 1.964s2.090-0.88 2.090-1.964v-0.001c0-1.085-0.936-1.963-2.090-1.963s-2.090 0.878-2.090 1.963v0.001z"></path>
</svg>
