<?xml version="1.0" encoding="utf-8"?>
<!-- Generated by IcoMoon.io -->
<!DOCTYPE svg PUBLIC "-//W3C//DTD SVG 1.1//EN" "http://www.w3.org/Graphics/SVG/1.1/DTD/svg11.dtd">
<svg version="1.1" xmlns="http://www.w3.org/2000/svg" xmlns:xlink="http://www.w3.org/1999/xlink" width="27" height="17" viewBox="0 0 27 17">
<path fill="#272727" d="M0 15.556c0 0.798 0.646 1.444 1.443 1.444h24.183c0.797 0 1.443-0.646 1.443-1.444v-14.112c0-0.798-0.646-1.444-1.443-1.444h-24.183c-0.797 0-1.443 0.646-1.443 1.444zM25.409 8.499c0 4.056-3.306 7.356-7.37 7.356-1.695 0-3.258-0.575-4.504-1.538-1.246 0.962-2.808 1.538-4.503 1.538-4.064 0-7.37-3.301-7.37-7.356s3.306-7.355 7.37-7.355c1.695 0 3.258 0.573 4.503 1.537 1.247-0.964 2.809-1.537 4.504-1.537 4.064 0 7.37 3.299 7.37 7.355zM18.039 1.802c3.706 0 6.71 2.998 6.71 6.697s-3.004 6.697-6.71 6.697c-1.495 0-2.875-0.489-3.99-1.314 0.951-0.884 1.669-2.018 2.049-3.293h-0.69c-0.367 1.117-1.019 2.103-1.872 2.873-0.852-0.771-1.504-1.756-1.871-2.873h-0.691c0.379 1.276 1.097 2.409 2.049 3.293-1.116 0.825-2.495 1.314-3.991 1.314-3.706 0-6.71-2.999-6.71-6.697s3.004-6.697 6.71-6.697c1.496 0 2.875 0.489 3.991 1.314-1.011 0.939-1.759 2.159-2.117 3.534h0.684c0.349-1.215 1.033-2.288 1.946-3.114 0.913 0.826 1.598 1.899 1.947 3.114h0.683c-0.357-1.375-1.105-2.594-2.117-3.534 1.115-0.825 2.495-1.314 3.99-1.314zM6.315 6.903h-1.074l-0.671 1.998-0.028-1.998h-0.996l-0.54 3.228h0.648l0.416-2.466 0.058 2.466h0.472l0.885-2.481-0.396 2.481h0.692l0.535-3.228zM7.602 8.961c-0.013 0.388-0.215 0.656-0.498 0.656-0.15 0-0.247-0.104-0.247-0.268 0-0.264 0.198-0.398 0.591-0.398 0.050 0 0.082 0.003 0.154 0.010zM8.105 10.131c0.018-0.199 0.146-1.014 0.207-1.393 0.035-0.22 0.057-0.386 0.056-0.521 0.001-0.504-0.314-0.769-0.908-0.769-0.256 0-0.484 0.038-0.828 0.139 0 0-0.089 0.546-0.096 0.59 0.115-0.038 0.394-0.123 0.732-0.118 0.324 0 0.444 0.065 0.444 0.239 0 0.047-0.005 0.084-0.027 0.171-0.103-0.013-0.204-0.021-0.282-0.021-0.768 0-1.214 0.372-1.214 1.012 0 0.424 0.256 0.716 0.632 0.716 0.317 0 0.55-0.103 0.725-0.318l-0.013 0.272h0.574zM17.145 6.824c-0.917 0-1.558 0.806-1.558 1.96 0 0.857 0.464 1.393 1.209 1.393 0.191 0 0.357-0.025 0.611-0.095l0.121-0.735c-0.229 0.112-0.417 0.166-0.588 0.166-0.402 0-0.645-0.297-0.645-0.786 0-0.711 0.361-1.21 0.878-1.21 0.192 0 0.371 0.050 0.618 0.175l0.113-0.7c-0.101-0.040-0.458-0.167-0.76-0.167zM19.139 8.961c-0.012 0.388-0.215 0.656-0.497 0.656-0.152 0-0.249-0.104-0.249-0.268 0-0.264 0.199-0.398 0.591-0.398 0.051 0 0.083 0.003 0.155 0.010zM19.642 10.131c0.018-0.199 0.147-1.014 0.207-1.393 0.035-0.22 0.057-0.386 0.056-0.521 0.001-0.504-0.314-0.769-0.909-0.769-0.254 0-0.482 0.038-0.827 0.139 0 0-0.089 0.546-0.096 0.59 0.115-0.038 0.393-0.123 0.732-0.118 0.323 0 0.443 0.065 0.443 0.239 0 0.047-0.005 0.084-0.026 0.171-0.103-0.013-0.204-0.021-0.282-0.021-0.767 0-1.215 0.372-1.215 1.012 0 0.424 0.257 0.716 0.632 0.716 0.316 0 0.55-0.103 0.726-0.318l-0.013 0.272h0.573zM11.506 9.51c-0.046 0.016-0.107 0.025-0.186 0.025-0.165 0-0.237-0.059-0.237-0.194 0.001-0.084 0.115-0.705 0.195-1.203h0.355l0.094-0.631h-0.354l0.080-0.396h-0.688c0 0-0.26 1.545-0.299 1.789-0.044 0.28-0.1 0.584-0.096 0.7 0 0.374 0.193 0.577 0.546 0.577 0.16 0 0.308-0.027 0.498-0.085l0.091-0.581zM13.623 10.071l0.114-0.653c-0.247 0.114-0.469 0.164-0.715 0.164-0.4 0-0.644-0.159-0.598-0.538h1.369c0.060-0.266 0.085-0.454 0.085-0.646 0-0.581-0.363-0.95-0.93-0.95-0.693 0-1.205 0.661-1.205 1.557 0 0.768 0.401 1.17 1.172 1.171 0.241 0 0.469-0.034 0.706-0.106zM13.236 8.514h-0.76c0.063-0.302 0.22-0.47 0.44-0.47 0.393 0 0.324 0.416 0.32 0.47zM8.637 8.336c0 0.333 0.16 0.561 0.527 0.733 0.28 0.132 0.324 0.17 0.324 0.29 0 0.163-0.124 0.236-0.398 0.236-0.206 0-0.399-0.031-0.62-0.103 0 0-0.091 0.578-0.096 0.606 0.158 0.034 0.298 0.066 0.721 0.078 0.73 0 1.067-0.278 1.067-0.877 0-0.362-0.14-0.572-0.488-0.731-0.29-0.134-0.323-0.163-0.323-0.285 0-0.142 0.115-0.214 0.34-0.214 0.135 0 0.321 0.015 0.496 0.040l0.099-0.609c-0.179-0.028-0.451-0.051-0.609-0.051-0.774 0-1.042 0.403-1.039 0.888zM23.539 10.131l0.527-3.228h-0.683l-0.153 0.933c-0.189-0.249-0.393-0.357-0.661-0.357-0.61 0-1.126 0.735-1.126 1.61 0 0.656 0.332 1.088 0.835 1.088 0.253 0 0.448-0.088 0.638-0.29l-0.033 0.244h0.655zM22.518 9.525c0.322 0 0.549-0.365 0.549-0.884 0-0.334-0.129-0.515-0.367-0.515-0.314 0-0.537 0.365-0.537 0.881 0 0.344 0.119 0.518 0.355 0.518zM20.383 7.506c-0.087 0.812-0.24 1.634-0.36 2.448l-0.032 0.177h0.691c0.248-1.605 0.308-1.918 0.696-1.879 0.062-0.33 0.176-0.616 0.263-0.762-0.29-0.060-0.452 0.104-0.663 0.415 0.017-0.135 0.047-0.265 0.040-0.399h-0.635zM14.335 7.506c-0.087 0.812-0.241 1.634-0.361 2.448l-0.032 0.177h0.692c0.248-1.605 0.307-1.918 0.695-1.879 0.063-0.33 0.178-0.616 0.263-0.762-0.289-0.060-0.452 0.104-0.663 0.415 0.017-0.135 0.047-0.265 0.041-0.399h-0.635z"></path>
</svg>
