<?xml version="1.0" encoding="utf-8"?>
<!-- Generated by IcoMoon.io -->
<!DOCTYPE svg PUBLIC "-//W3C//DTD SVG 1.1//EN" "http://www.w3.org/Graphics/SVG/1.1/DTD/svg11.dtd">
<svg version="1.1" xmlns="http://www.w3.org/2000/svg" xmlns:xlink="http://www.w3.org/1999/xlink" width="27" height="17" viewBox="0 0 27 17">
<path fill="#272727" d="M0 1.444c0-0.797 0.647-1.444 1.443-1.444h24.183c0.797 0 1.443 0.646 1.443 1.444v14.112c0 0.797-0.647 1.444-1.443 1.444h-24.183c-0.797 0-1.443-0.646-1.443-1.444v-14.112zM10.021 12.042h1.925l1.205-7.066h-1.926l-1.204 7.066zM18.931 5.15c-0.382-0.143-0.979-0.297-1.726-0.297-1.903 0-3.243 0.958-3.255 2.332-0.011 1.015 0.957 1.582 1.688 1.92 0.75 0.346 1.002 0.567 0.998 0.876-0.005 0.474-0.599 0.69-1.152 0.69-0.771 0-1.18-0.107-1.813-0.371l-0.248-0.112-0.27 1.582c0.45 0.197 1.282 0.368 2.145 0.377 2.024 0 3.339-0.947 3.354-2.414 0.007-0.804-0.506-1.415-1.617-1.92-0.673-0.327-1.085-0.545-1.081-0.876 0-0.294 0.349-0.608 1.103-0.608 0.63-0.010 1.086 0.128 1.441 0.271l0.173 0.082 0.261-1.531zM23.87 4.983h-1.488c-0.461 0-0.806 0.126-1.008 0.586l-2.86 6.475h2.022c0 0 0.331-0.871 0.405-1.062 0.221 0 2.186 0.003 2.466 0.003 0.058 0.247 0.234 1.059 0.234 1.059h1.787l-1.559-7.061zM6.32 8.82l-0.675-3.247c-0.117-0.447-0.455-0.581-0.873-0.597h-3.106l-0.025 0.147c0.755 0.183 1.431 0.447 2.023 0.775l1.712 6.137 2.038-0.002 3.032-7.052h-2.040l-1.886 4.818-0.201-0.979c-0-0-0-0-0-0zM21.495 9.537c0.159-0.407 0.767-1.975 0.767-1.975-0.011 0.019 0.158-0.409 0.255-0.674l0.13 0.609c0 0 0.369 1.687 0.446 2.040l-1.599 0z"></path>
</svg>
