<?xml version="1.0" encoding="utf-8"?>
<!-- Generated by IcoMoon.io -->
<!DOCTYPE svg PUBLIC "-//W3C//DTD SVG 1.1//EN" "http://www.w3.org/Graphics/SVG/1.1/DTD/svg11.dtd">
<svg version="1.1" xmlns="http://www.w3.org/2000/svg" xmlns:xlink="http://www.w3.org/1999/xlink" width="26" height="21" viewBox="0 0 26 21">
<path fill="#272727" d="M5.25 7.219v-2.625c0-1.087 0.881-1.969 1.969-1.969h0.656v-2.625h-0.656c-2.537 0-4.594 2.057-4.594 4.594v2.625c0 1.087-0.881 1.969-1.969 1.969h-0.656v2.625h0.656c1.087 0 1.969 0.881 1.969 1.969v2.625c0 2.537 2.057 4.594 4.594 4.594h0.656v-2.625h-0.656c-1.087 0-1.969-0.881-1.969-1.969v-2.625c0-1.286-0.528-2.447-1.379-3.281 0.851-0.834 1.379-1.996 1.379-3.281z"></path>
<path fill="#272727" d="M21 7.219v-2.625c0-1.087-0.881-1.969-1.969-1.969h-0.656v-2.625h0.656c2.537 0 4.594 2.057 4.594 4.594v2.625c0 1.087 0.881 1.969 1.969 1.969h0.656v2.625h-0.656c-1.087 0-1.969 0.881-1.969 1.969v2.625c0 2.537-2.057 4.594-4.594 4.594h-0.656v-2.625h0.656c1.087 0 1.969-0.881 1.969-1.969v-2.625c0-1.286 0.528-2.447 1.379-3.281-0.851-0.834-1.379-1.996-1.379-3.281z"></path>
<path fill="#272727" d="M15.75 6.581c0 1.45-1.175 2.625-2.625 2.625s-2.625-1.175-2.625-2.625c0-1.45 1.175-2.625 2.625-2.625s2.625 1.175 2.625 2.625z"></path>
<path fill="#272727" d="M13.125 10.482c-1.45 0-2.625 1.175-2.625 2.625 0 1.41 0.656 2.527 2.669 2.622-0.599 0.843-1.5 1.176-2.669 1.286v1.559c0 0 5.25 0.458 5.25-5.466-0.005-1.45-1.175-2.625-2.625-2.625z"></path>
</svg>
