<!-- Generated by IcoMoon.io -->
<svg version="1.1" xmlns="http://www.w3.org/2000/svg" style="height: 1em; width: 1em;" viewBox="0 0 16 16" aria-labelledby="email-title">
<title id="email-title">Email: </title>
<path fill="currentColor" d="M15 2h-14c-0.55 0-1 0.45-1 1v10c0 0.55 0.45 1 1 1h14c0.55 0 1-0.45 1-1v-10c0-0.55-0.45-1-1-1zM5.831 9.773l-3 2.182c-0.1 0.073-0.216 0.108-0.33 0.108-0.174 0-0.345-0.080-0.455-0.232-0.183-0.251-0.127-0.603 0.124-0.786l3-2.182c0.251-0.183 0.603-0.127 0.786 0.124s0.127 0.603-0.124 0.786zM13.955 11.831c-0.11 0.151-0.282 0.232-0.455 0.232-0.115 0-0.23-0.035-0.33-0.108l-3-2.182c-0.251-0.183-0.307-0.534-0.124-0.786s0.535-0.307 0.786-0.124l3 2.182c0.251 0.183 0.307 0.535 0.124 0.786zM13.831 4.955l-5.5 4c-0.099 0.072-0.215 0.108-0.331 0.108s-0.232-0.036-0.331-0.108l-5.5-4c-0.251-0.183-0.307-0.534-0.124-0.786s0.535-0.307 0.786-0.124l5.169 3.759 5.169-3.759c0.251-0.183 0.603-0.127 0.786 0.124s0.127 0.603-0.124 0.786z"></path>
</svg>
