<!-- Generated by IcoMoon.io -->
<svg version="1.1" xmlns="http://www.w3.org/2000/svg" width="15" height="16" viewBox="0 0 15 16">
<title>snapchat-ghost</title>
<path fill="#272727" d="M7.571 1.143c1.607-0.018 2.938 0.884 3.607 2.33 0.205 0.438 0.241 1.116 0.241 1.598 0 0.571-0.045 1.134-0.080 1.705 0.071 0.036 0.17 0.063 0.25 0.063 0.321 0 0.589-0.241 0.911-0.241 0.304 0 0.741 0.214 0.741 0.571 0 0.857-1.795 0.696-1.795 1.446 0 0.134 0.054 0.259 0.107 0.384 0.429 0.938 1.241 1.839 2.205 2.241 0.232 0.098 0.464 0.152 0.714 0.205 0.161 0.036 0.25 0.152 0.25 0.313 0 0.607-1.545 0.857-1.955 0.92-0.179 0.277-0.045 0.929-0.518 0.929-0.366 0-0.732-0.116-1.125-0.116-0.188 0-0.375 0.009-0.554 0.045-1.063 0.179-1.42 1.321-3.161 1.321-1.679 0-2.080-1.143-3.116-1.321-0.188-0.036-0.375-0.045-0.563-0.045-0.402 0-0.786 0.134-1.107 0.134-0.5 0-0.348-0.661-0.536-0.946-0.411-0.063-1.955-0.313-1.955-0.92 0-0.161 0.089-0.277 0.25-0.313 0.25-0.054 0.482-0.107 0.714-0.205 0.955-0.393 1.786-1.304 2.205-2.241 0.054-0.125 0.107-0.25 0.107-0.384 0-0.75-1.804-0.607-1.804-1.438 0-0.348 0.411-0.571 0.723-0.571 0.277 0 0.554 0.232 0.902 0.232 0.098 0 0.196-0.018 0.286-0.063-0.036-0.563-0.080-1.125-0.080-1.696 0-0.482 0.036-1.17 0.241-1.607 0.786-1.696 2.116-2.313 3.893-2.33z"></path>
</svg>
