<?xml version="1.0" encoding="utf-8"?>
<!-- Generated by IcoMoon.io -->
<!DOCTYPE svg PUBLIC "-//W3C//DTD SVG 1.1//EN" "http://www.w3.org/Graphics/SVG/1.1/DTD/svg11.dtd">
<svg version="1.1" xmlns="http://www.w3.org/2000/svg" xmlns:xlink="http://www.w3.org/1999/xlink" width="17" height="17" viewBox="0 0 17 17">
<path fill="#272727" d="M6.375 15.406c0 0.88-0.714 1.594-1.594 1.594s-1.594-0.714-1.594-1.594c0-0.88 0.714-1.594 1.594-1.594s1.594 0.714 1.594 1.594z"></path>
<path fill="#272727" d="M17 15.406c0 0.88-0.714 1.594-1.594 1.594s-1.594-0.714-1.594-1.594c0-0.88 0.714-1.594 1.594-1.594s1.594 0.714 1.594 1.594z"></path>
<path fill="#272727" d="M17 8.5v-6.375h-12.75c0-0.587-0.476-1.063-1.063-1.063h-3.188v1.063h2.125l0.798 6.841c-0.486 0.389-0.798 0.988-0.798 1.659 0 1.174 0.951 2.125 2.125 2.125h12.75v-1.063h-12.75c-0.587 0-1.063-0.476-1.063-1.063 0-0.004 0-0.007 0-0.011l13.812-2.114z"></path>
</svg>
