<?xml version="1.0" encoding="utf-8"?>
<!-- Generated by IcoMoon.io -->
<!DOCTYPE svg PUBLIC "-//W3C//DTD SVG 1.1//EN" "http://www.w3.org/Graphics/SVG/1.1/DTD/svg11.dtd">
<svg version="1.1" xmlns="http://www.w3.org/2000/svg" xmlns:xlink="http://www.w3.org/1999/xlink" width="17" height="17" viewBox="0 0 17 17">
<path fill="#272727" d="M14.755 14.006l-2.536-3.381h1.063c0 0 0.001 0 0.001 0 0.293 0 0.531-0.238 0.531-0.531 0-0.128-0.045-0.246-0.121-0.338l-2.536-3.381h1.063c0.204 0 0.39-0.117 0.479-0.301s0.064-0.403-0.064-0.562l-4.25-5.313c-0.101-0.126-0.253-0.199-0.415-0.199s-0.314 0.073-0.415 0.199l-4.25 5.313c-0.128 0.159-0.152 0.378-0.064 0.562s0.275 0.301 0.479 0.301h1.063l-2.55 3.4c-0.121 0.161-0.14 0.376-0.050 0.556s0.274 0.294 0.475 0.294h1.063l-2.55 3.4c-0.121 0.161-0.14 0.376-0.050 0.556s0.274 0.294 0.475 0.294h4.781v1.594c0 0.293 0.238 0.531 0.531 0.531h2.125c0.293 0 0.531-0.238 0.531-0.531v-1.594h4.781c0 0 0 0 0.001 0 0.293 0 0.531-0.238 0.531-0.531 0-0.128-0.045-0.246-0.121-0.338z"></path>
</svg>
