<?xml version="1.0" encoding="utf-8"?>
<!-- Generated by IcoMoon.io -->
<!DOCTYPE svg PUBLIC "-//W3C//DTD SVG 1.1//EN" "http://www.w3.org/Graphics/SVG/1.1/DTD/svg11.dtd">
<svg version="1.1" xmlns="http://www.w3.org/2000/svg" xmlns:xlink="http://www.w3.org/1999/xlink" width="21" height="21" viewBox="0 0 21 21">
<path fill="#272727" d="M10.5 5.25c-5.799 0-10.5 4.701-10.5 10.5h1.313c0-4.349 3.526-7.875 7.875-7.875 2.314 0 4.394 0.998 5.835 2.586l-3.559 2.847c-0.298-0.118-0.623-0.183-0.964-0.183-1.45 0-2.625 1.175-2.625 2.625s1.175 2.625 2.625 2.625c1.45 0 2.625-1.175 2.625-2.625 0-0.34-0.066-0.665-0.183-0.964l2.765-3.456c0.856 1.26 1.356 2.781 1.356 4.42h3.938c0-5.799-4.701-10.5-10.5-10.5z"></path>
</svg>
