<?xml version="1.0" encoding="utf-8"?>
<!-- Generated by IcoMoon.io -->
<!DOCTYPE svg PUBLIC "-//W3C//DTD SVG 1.1//EN" "http://www.w3.org/Graphics/SVG/1.1/DTD/svg11.dtd">
<svg version="1.1" xmlns="http://www.w3.org/2000/svg" xmlns:xlink="http://www.w3.org/1999/xlink" width="21" height="21" viewBox="0 0 21 21">
<path fill="#272727" d="M10.471 0c-5.783 0-10.471 4.688-10.471 10.471s4.688 10.471 10.471 10.471 10.471-4.688 10.471-10.471-4.688-10.471-10.471-10.471zM10.312 2.080c0.75 0 1.357 0.607 1.357 1.352 0 0.75-0.607 1.357-1.357 1.357-0.745 0-1.352-0.607-1.352-1.357 0-0.745 0.607-1.352 1.352-1.352zM16.18 6.453l-4.029 0.509 0.002 4.033 1.952 6.515c0.103 0.411-0.144 0.823-0.551 0.925s-0.823-0.122-0.925-0.534l-1.999-5.931h-0.616l-1.839 6.054c-0.154 0.395-0.594 0.577-0.988 0.423-0.391-0.152-0.629-0.597-0.475-0.992l1.689-6.394v-4.099l-3.712-0.505c-0.381-0.031-0.64-0.366-0.609-0.747 0.028-0.384 0.374-0.669 0.755-0.638l4.509 0.388h1.978l4.802-0.396c0.382-0.015 0.705 0.281 0.718 0.666 0.015 0.382-0.279 0.707-0.661 0.723z"></path>
</svg>
