<?xml version="1.0" encoding="utf-8"?>
<!-- Generated by IcoMoon.io -->
<!DOCTYPE svg PUBLIC "-//W3C//DTD SVG 1.1//EN" "http://www.w3.org/Graphics/SVG/1.1/DTD/svg11.dtd">
<svg version="1.1" xmlns="http://www.w3.org/2000/svg" xmlns:xlink="http://www.w3.org/1999/xlink" width="32" height="32" viewBox="0 0 32 32">
<g id="icomoon-ignore">
</g>
<path d="M8.914 30.426c-0.396-0.79-0.72-1.452-0.72-1.47s0.675 0.069 1.5 0.193c0.825 0.124 1.517 0.209 1.538 0.188s-0.391-3.49-0.916-7.708l-0.954-7.67-2.739-10.101-0.985 0.981c-0.68 0.678-1.001 0.939-1.037 0.843-0.029-0.076-0.305-0.925-0.615-1.888-0.466-1.447-0.536-1.75-0.407-1.75 0.086 0 3.262-0.28 7.059-0.623 6.107-0.551 7.163-0.623 9.156-0.625l2.253-0.001 3.452 1.274 3.098 3.981 0.335 4.894-1.033 1.854c-0.568 1.020-1.062 1.886-1.099 1.926s-0.97 0.508-2.074 1.039l-2.008 0.967-2.253-0.157c-1.239-0.087-2.999-0.268-3.911-0.404s-1.685-0.219-1.719-0.186c-0.052 0.052 3.007 11.54 3.102 11.651 0.018 0.021 0.724-0.291 1.569-0.695s1.57-0.734 1.613-0.734c0.099 0 0.777 2.426 0.699 2.502-0.032 0.031-1.362 0.172-2.955 0.314l-2.896 0.257-3.124 1.292c-1.718 0.711-3.143 1.292-3.167 1.292s-0.368-0.647-0.764-1.437zM19.7 14.589l1.486-0.495 0.582-0.632c1.289-1.399 1.273-1.376 1.582-2.369 0.162-0.521 0.396-1.595 0.518-2.386l0.223-1.438-0.528-1.007c-0.474-0.904-0.637-1.112-1.596-2.036l-1.068-1.029-3.441-1.279-1.755 0.422c-1.547 0.372-1.755 0.445-1.758 0.614-0.003 0.209 0.882 11.781 0.903 11.811 0.031 0.044 2.36 0.295 2.837 0.306 0.401 0.009 0.884-0.107 2.013-0.483z" fill="#000000"></path>
</svg>
